<svg xmlns="http://www.w3.org/2000/svg" width="224" height="222"><path fill="#FADE06" d="M115 9c1.169 2.044 1.98 4.144 2.84 6.336 1.714 3.936 4.078 7.373 6.43 10.953 1.583 2.48 2.985 4.984 4.355 7.586 1.98 3.673 4.377 6.208 7.375 9.125l1.063 2.688L138 48l1.863.754c3.146 1.835 3.824 4.199 5.262 7.496l1.508 3.39c6.197 15.227 5.575 31.24-.633 46.36a86 86 0 0 1-2.25 3.938c-1.767 3.093-2.172 4.581-1.75 8.062h6l2-7 3 1 1 6 9 2c-1.004 2.008-2.009 4.017-3.062 6-.935 1.993-1.435 3.864-1.938 6l-1.934-.254-2.504-.309-2.496-.316L149 131l-1 1c-1.666.04-3.334.043-5 0l-.367-1.898-.508-2.477-.492-2.46c-.5-2.352-.5-2.352-2.633-4.165a793 793 0 0 0-1.937 5.125l-1.09 2.883c-2.765 8.504-4.228 21.417-.223 29.742 4.835 6.983 9.076 8.663 17.25 10.25 4.496.707 7.321.39 11.375-1.937 4.982-4.847 4.73-11.773 4.875-18.313.022-4.169-.707-6.917-2.25-10.75-.353-3.089-.501-6.154-.656-9.258-.163-2.955-.163-2.955-2.344-5.742-3.374-14.685-1.518-31.758 5.617-44.98 2.003-2.925 4.277-4.372 7.383-6.02l2.938-2.062c3.26-2.064 6.486-3.495 10.062-4.938l3.625-1.687c3.153-1.227 5.058-1.882 8.375-1.313 2 3 2 3 1.777 4.941-.842 2.23-1.892 4.015-3.214 5.996-6.414 10.102-5.009 19.005-2.47 30.43.974 3.901 2.213 7.55 3.665 11.293 1.761 4.736 3.316 9.532 4.867 14.34l.913 2.77c5.152 16.056 8.96 36.88 1.86 52.828C203.211 196.59 195.091 204.15 183 210l-2.336 1.219c-12.855 6.69-29.52 5.067-43.082.976-8.74-2.916-16.138-6.164-23.523-11.742-2.091-1.624-2.091-1.624-5.059-2.453-2.686 1.706-2.686 1.706-5.625 4.063-14.99 11.103-33.775 13.95-51.973 11.44C44.935 212.028 39.564 209.56 34 206c-.982-.59-1.965-1.178-2.977-1.785-11.315-7.062-18.15-15.809-21.273-28.84-3.211-18.52 1.32-35.802 7.188-53.187q.817-2.464 1.63-4.928 1.5-4.536 3.022-9.064l.691-2.067q.765-2.262 1.55-4.518l.822-2.392.752-2.16c.966-3.342.992-6.324.97-9.809l.023-3.797c-.487-4.221-1.684-7.068-5.023-9.766C19.032 70.813 19.235 67.639 19 64c1-1 1-1 3.813-1.375C31.803 62.772 41.97 68.701 49 74c8.364 8.886 11.177 20.664 11.188 32.5l.037 2.262c.01 4.207-.296 7.394-2.225 11.238 5.022-1.045 5.022-1.045 8.938-4.125L68 114c1.875.313 1.875.313 4 1l2 3c3.557 1.219 3.557 1.219 7 2-.703 2.977-1.582 5.853-2.562 8.75l-.817 2.422L77 133c-2.763-.523-5.326-1.109-8-2l-1 1c-1.666.04-3.334.043-5 0l-1.312-3.375c-1.387-3.8-1.387-3.8-4.688-5.625l-.621 2.773-.816 3.602-.81 3.586C54 136 54 136 53 138c-.266 3.244-.232 6.497-.25 9.75l-.062 2.71c-.037 6.243.963 10.162 4.578 15.36C61.57 168.748 67.978 168.096 73 168c4.64-.939 8.088-3.285 11-7 6.5-11.048 6.324-23.08 3.25-35.312-1.904-7.142-4.525-13.448-7.988-19.954C75.515 98.617 72.683 92.124 72 84c-.07-.745-.14-1.49-.21-2.258C71.122 67.446 78.197 53.817 87 43a247 247 0 0 0 4-6.312l1.062-1.729c1.888-3.11 3.63-6.234 5.188-9.522C99 22 99 22 101 20.063c2.626-2.708 3.64-5.641 4.973-9.136C107.975 7.172 111.529 7.476 115 9"/><path fill="#F7F292" d="M115 9c1.169 2.044 1.98 4.144 2.84 6.336 1.714 3.936 4.078 7.373 6.43 10.953 1.583 2.48 2.985 4.984 4.355 7.586 1.98 3.673 4.377 6.208 7.375 9.125l1.063 2.688L138 48l1.863.754c3.146 1.835 3.824 4.199 5.262 7.496l1.508 3.39c6.197 15.227 5.575 31.24-.633 46.36a86 86 0 0 1-2.25 3.938c-1.767 3.093-2.172 4.581-1.75 8.062h6l2-7 3 1 1 6 9 2c-1.004 2.008-2.009 4.017-3.062 6-.935 1.993-1.435 3.864-1.938 6l-1.934-.254-2.504-.309-2.496-.316L149 131l-1 1c-1.666.04-3.334.043-5 0l-.367-1.898-.508-2.477-.492-2.46c-.5-2.352-.5-2.352-2.633-4.165a793 793 0 0 0-1.937 5.125l-1.09 2.883c-2.765 8.504-4.228 21.417-.223 29.742 4.835 6.983 9.076 8.663 17.25 10.25 4.496.707 7.321.39 11.375-1.937 5.981-5.803 5.128-16.334 5.625-24.063h1v16h3c-1.473-18.826-1.473-18.826-5.125-37.312-.905-3.815-1.037-6.803-.875-10.688h2l.332 1.977c.946 5.217 2.248 9.283 4.668 14.023 2.29 7.215 2.366 14.493 2.375 22l.074 3.406c.024 6.788-.45 12.878-4.449 18.594-2.75 1.063-2.75 1.063-5 1v2c-6.869 3.878-16.369 2.939-24 2-4.24-1.395-7.483-3.28-11-6l-1.918-1.371c-2.837-2.163-4.976-4.2-6.082-7.629v-4h-2c-.882-3.038-1.129-5.755-1.133-8.914l-.004-2.805.012-2.906-.012-2.93.004-2.797.004-2.557C122 132 122 132 123 130h2l1-8h2l-.187-2.187c.227-3.414 1.428-4.897 3.187-7.813a185 185 0 0 0 2.5-6.437c1.228-3.335 2.467-6.499 4.094-9.66 3.91-8.073 3.974-20.451 1.511-29.012-1.046-2.353-1.046-2.353-2.23-4.36C136 61 136 61 136 59l-1.75-.687c-2.847-1.661-4.37-3.628-6.25-6.313v-2h-2l-.687-1.687c-1.253-2.48-1.253-2.48-3.688-4.5-2.878-3.084-4.13-5.803-5.71-9.653-1.077-2.543-2.42-4.842-3.915-7.16-1.959.113-1.959.113-4 1-1.345 2.615-2.037 5.149-2.75 8-1.622 3.893-3.954 5.429-7.25 8-3.254 3.55-5.436 7.451-7.703 11.664-1.244 2.241-2.586 4.376-3.984 6.523C84.303 65.34 82.997 68.375 82 72h-2c.829 10.008 1.725 18.81 6 28 1.062 2.98 2.039 5.986 3 9h2c1.538 2.814 2.38 5.286 2.938 8.438.735 4.013 1.668 7.924 2.687 11.874 2.633 11.322 2.496 21.832-3.605 31.91-1.616 2.818-2.794 5.774-4.02 8.778h-4l-1 3c-5.717 1.91-11.069 2.338-17.062 2.313l-2.315.048C57.068 175.368 50.85 172.92 45 168c-3.017-6.365-3.543-11.947-3.5-18.937l.006-3.054c.195-9.347 2.468-17.252 5.494-26.009 1.68-6.375 2.459-12.419 2-19l-.137-2.879c-.765-7.779-3.4-11.737-8.965-17.16C38 79 38 79 38 77h-3l.063 1.721c.372 11.621.248 21.362-4.063 32.279a520 520 0 0 0-1.562 4.938c-.782 2.44-1.662 4.472-2.899 6.734-1.913 4.136-2.734 8.187-3.602 12.64A162 162 0 0 1 21 144l-2 1c-.03 4.02-.047 8.042-.062 12.063l-.026 3.435C18.67 171.827 18.67 171.827 23 182q.94 1.78 1.875 3.563c1.888 3.303 3.965 5.255 7.125 7.437l2.672 1.91c13.567 8.52 28.087 10.11 43.578 6.653A329 329 0 0 0 84 200l2.234-.348c1.97-.497 1.97-.497 2.735-2.62C90 195 90 195 92.094 194.093l4.812-1.188c2.684-1.161 2.997-2.261 4.094-4.906 2.313-2.812 2.313-2.812 5-5 3.636.042 4.857.863 7.5 3.398l2.5 2.977c6.395 7.574 14.689 12.14 24.625 13.375L144 203v2c18.968 1.18 18.968 1.18 36-6l3.242-1.574c2.858-1.134 2.858-1.134 3.758-3.426l2.313-1.25c3.292-2.144 4.676-4.398 6.687-7.75l1.688-2.437c1.618-3.161 1.908-6.058 2.312-9.563l1-1c.088-2.073.107-4.148.098-6.223l-.01-3.818-.025-4.022q-.008-2.016-.014-4.033A3769 3769 0 0 0 201 144h-2q-.755-3.155-1.5-6.312l-.844-3.551C196 131 196 131 196 128h-2l-.586-2.336-.789-3.039-.773-3.023c-.676-2.727-.676-2.727-2.852-4.602-4.618-10.714-5.299-21.47-5-33l-9 2-.375 2.313C174 89 174 89 172 92a136 136 0 0 0-1.625 6.688c-.26 1.179-.52 2.358-.79 3.574L169 105c-2.366-3.549-2.109-4.576-1.625-8.687l.336-3.012L168 91h-2c-1.391 10.61-2.954 24.092 2 34 .07 2.207.084 4.417.063 6.625l-.028 3.602L168 138h-1l-.148-2.52-.227-3.292-.21-3.27c-.227-3.104-.227-3.104-2.415-5.918-3.374-14.685-1.518-31.758 5.617-44.98 2.003-2.925 4.277-4.372 7.383-6.02l2.938-2.062c3.26-2.064 6.486-3.495 10.062-4.938l3.625-1.687c3.153-1.227 5.058-1.882 8.375-1.313 2 3 2 3 1.777 4.941-.842 2.23-1.892 4.015-3.214 5.996-6.414 10.102-5.009 19.005-2.47 30.43.974 3.901 2.213 7.55 3.665 11.293 1.761 4.736 3.316 9.532 4.867 14.34l.913 2.77c5.152 16.056 8.96 36.88 1.86 52.828C203.211 196.59 195.091 204.15 183 210l-2.336 1.219c-12.855 6.69-29.52 5.067-43.082.976-8.74-2.916-16.138-6.164-23.523-11.742-2.091-1.624-2.091-1.624-5.059-2.453-2.686 1.706-2.686 1.706-5.625 4.063-14.99 11.103-33.775 13.95-51.973 11.44C44.935 212.028 39.564 209.56 34 206c-.982-.59-1.965-1.178-2.977-1.785-11.315-7.062-18.15-15.809-21.273-28.84-3.211-18.52 1.32-35.802 7.188-53.187q.817-2.464 1.63-4.928 1.5-4.536 3.022-9.064l.691-2.067q.765-2.262 1.55-4.518l.822-2.392.752-2.16c.966-3.342.992-6.324.97-9.809l.023-3.797c-.487-4.221-1.684-7.068-5.023-9.766C19.032 70.813 19.235 67.639 19 64c1-1 1-1 3.813-1.375C31.803 62.772 41.97 68.701 49 74c8.364 8.886 11.177 20.664 11.188 32.5l.037 2.262c.01 4.207-.296 7.394-2.225 11.238 5.022-1.045 5.022-1.045 8.938-4.125L68 114c1.875.313 1.875.313 4 1l2 3c3.557 1.219 3.557 1.219 7 2-.703 2.977-1.582 5.853-2.562 8.75l-.817 2.422L77 133c-2.763-.523-5.326-1.109-8-2l-1 1c-1.666.04-3.334.043-5 0l-1.312-3.375c-1.387-3.8-1.387-3.8-4.688-5.625l-.621 2.773-.816 3.602-.81 3.586C54 136 54 136 53 138c-.266 3.244-.232 6.497-.25 9.75l-.062 2.71c-.037 6.243.963 10.162 4.578 15.36C61.57 168.748 67.978 168.096 73 168c4.64-.939 8.088-3.285 11-7 6.5-11.048 6.324-23.08 3.25-35.312-1.904-7.142-4.525-13.448-7.988-19.954C75.515 98.617 72.683 92.124 72 84c-.07-.745-.14-1.49-.21-2.258C71.122 67.446 78.197 53.817 87 43a247 247 0 0 0 4-6.312l1.062-1.729c1.888-3.11 3.63-6.234 5.188-9.522C99 22 99 22 101 20.063c2.626-2.708 3.64-5.641 4.973-9.136C107.975 7.172 111.529 7.476 115 9"/><path fill="#EDED94" d="M202 62c2 3 2 3 1.777 4.941-.842 2.23-1.892 4.015-3.214 5.996-6.414 10.102-5.009 19.005-2.47 30.43.974 3.901 2.213 7.55 3.665 11.293 1.761 4.736 3.316 9.532 4.867 14.34l.913 2.77c5.152 16.056 8.96 36.88 1.86 52.828C203.211 196.59 195.091 204.15 183 210l-2.336 1.219c-12.855 6.69-29.52 5.067-43.082.976-8.74-2.916-16.138-6.164-23.523-11.742-2.091-1.624-2.091-1.624-5.059-2.453-2.686 1.706-2.686 1.706-5.625 4.063-14.99 11.103-33.775 13.95-51.973 11.44C44.935 212.028 39.564 209.56 34 206c-.982-.59-1.965-1.178-2.977-1.785C21.357 198.182 14.52 191.025 11 180c-.25-3.062-.25-3.062 0-5l1 4h3l1.313 3.625c3.487 9.196 7.586 14.37 16.125 19.5l3.308 2.008C49.952 212.285 65.176 212.95 81 209l3.176-.707c7.654-1.97 12.607-4.984 18.386-10.367 2.627-2.075 4.118-2.742 7.438-2.926 4.047 1.909 7.277 4.209 10.75 7 11.378 8.687 27.166 10.493 41 10.188l3.594-.042q4.328-.051 8.656-.146v-3l2.309-.848C186.875 204.05 197.716 197.57 203 187h2l.438-3.937c.437-3.938.437-3.938 1.562-5.063.23-1.347.412-2.704.563-4.062L208 170h2c-.28-3.397-.575-6.792-.875-10.187l-.238-2.909-.254-2.822-.222-2.587c-.448-2.719-1.362-4.954-2.411-7.495-.381-2.326-.725-4.66-1-7l-.312 1.813c-.786 2.5-1.657 3.562-3.688 5.187h-2q-.755-3.155-1.5-6.312l-.844-3.551C196 131 196 131 196 128h-2l-.586-2.336-.789-3.039-.773-3.023c-.676-2.727-.676-2.727-2.852-4.602-4.618-10.714-5.299-21.47-5-33l-9 2-.375 2.313C174 89 174 89 172 92a136 136 0 0 0-1.625 6.688c-.26 1.179-.52 2.358-.79 3.574L169 105c-2.366-3.549-2.109-4.576-1.625-8.687l.336-3.012L168 91h-2c-1.391 10.61-2.954 24.092 2 34 .07 2.207.084 4.417.063 6.625l-.028 3.602L168 138h-1l-.148-2.52-.227-3.292-.21-3.27c-.227-3.104-.227-3.104-2.415-5.918-3.374-14.685-1.518-31.758 5.617-44.98 2.003-2.925 4.277-4.372 7.383-6.02l2.938-2.062c3.26-2.064 6.486-3.495 10.062-4.938l3.625-1.687c3.153-1.227 5.058-1.882 8.375-1.313"/><path fill="#FAF38D" d="M22.813 62.625C31.803 62.772 41.97 68.701 49 74c8.364 8.886 11.177 20.664 11.188 32.5l.037 2.262c.01 4.207-.296 7.394-2.225 11.238 5.022-1.045 5.022-1.045 8.938-4.125L68 114c1.875.313 1.875.313 4 1l2 3c3.557 1.219 3.557 1.219 7 2-.703 2.977-1.582 5.853-2.562 8.75l-.817 2.422L77 133c-2.763-.523-5.326-1.109-8-2l-1 1c-1.666.04-3.334.043-5 0l-1.312-3.375c-1.387-3.8-1.387-3.8-4.688-5.625l-.621 2.773-.816 3.602-.81 3.586C54 136 54 136 53 138a69 69 0 0 0-.133 4.395l-.004 2.646.012 2.772-.012 2.736c.007 4.271.038 8.29 1.137 12.451l-4-2c-.058-4.062-.094-8.125-.125-12.187-.017-1.151-.034-2.301-.05-3.487l-.02-3.369-.032-3.094c.238-3.008.995-5.128 2.227-7.863.41-1.595.788-3.2 1.125-4.812l.508-2.395L54 122h2c1.193-5.325 1.184-10.44 1.188-15.875l.037-2.934C57.235 97.737 56.945 93.12 55 88l-2-2-.812-2.25c-3.024-7.002-7.955-10.218-14.5-13.562l-2.186-1.194C30.601 66.432 26.518 65.38 21 65c.436 4.942 2.811 7.344 6 11 2.33 3.596 2.39 7.03 2.625 11.25l.227 3.828L30 94q.079-3.312.125-6.625l.07-3.727C30.002 80.035 29.204 77.383 28 74v-4c3.994.57 6.63 1.81 10 4l2.438 1.25c7.342 5.014 11.342 12.462 13.312 21 1.104 16.56 1.104 16.56-2.75 24.75h-2l.07-3.953c1.017-18.134 1.017-18.134-6.695-33.672l-2.477-2.414C38 79 38 79 38 77h-3l.063 1.721c.372 11.621.248 21.362-4.063 32.279a520 520 0 0 0-1.562 4.938c-.782 2.44-1.662 4.472-2.899 6.734-1.913 4.136-2.734 8.187-3.602 12.64A162 162 0 0 1 21 144l-2 1c-.03 4.02-.047 8.042-.062 12.063l-.026 3.435C18.67 171.827 18.67 171.827 23 182c4.392 7.2 4.392 7.2 5 11-3.158-.938-4.715-1.624-6.73-4.285-3.107-5.921-5.102-11.132-6.27-17.715l-1-1c-1.053-17.288 2.344-31.475 7.915-47.672A98.3 98.3 0 0 0 26 106c-2.368 3.657-3.866 7.167-5.187 11.313l-1.043 3.238L19 123c-1.1-3.301-.954-3.858.145-6.984l.802-2.336.866-2.43c4.13-11.642 4.13-11.642 5.5-23.875l.05-3.852C25.981 79.812 25.208 77.961 23 75l-1.625-1.312C19.032 70.812 19.235 67.638 19 64c1-1 1-1 3.813-1.375"/><path fill="#F1DF1B" d="M35 77c3 0 3 0 4.719 1.61l3.562 4.25L45 85l1.645 1.91C49.342 91.068 49.44 96.167 50 101l.262 2.223c.475 8.5-2.546 17.28-5.057 25.324-2.059 6.837-2.636 13.02-2.517 20.14l-.01 2.971c.042 5.759.48 10.866 2.322 16.342 2.415 1.467 2.415 1.467 5 2l2 2c5.009 2.162 9.523 2.304 14.875 2.25l2.316.023c5.24-.017 9.805-.683 14.809-2.273l1-2 1.898-.258c2.393-.58 2.393-.58 3.516-3.36l1.211-3.257c1.276-3.372 2.369-6.116 4.375-9.125 2.487-9.548 1.141-18.947-1.489-28.267-1.297-4.6-2.011-8.996-2.511-13.733h2q1.189 2.593 2.375 5.188l1.336 2.917c1.944 4.366 3.503 8.367 4.352 13.082.625 3.52.625 3.52 1.937 6.813a90 90 0 0 1 .313 5.875l.113 3.18c-.524 3.626-1.713 4.594-4.426 6.945a78 78 0 0 0-2 5l-2 3c-.167 1.992-.167 1.992 0 4.063V172l-2 2-2.687-.187c-3.525-.14-3.525-.14-6.168 2.667-5.311 3.956-11.424 3.17-17.77 3.02l-3.68.008C53.502 179.396 53.502 179.396 49 176v-2l-2.437-.625L44 172c-.812-3.125-.812-3.125-1-6l-3-1c-2.653-7.114-2.331-14.138-2.312-21.625l-.05-3.969-.001-3.82-.01-3.467c.413-3.456 1.43-5.274 3.373-8.119.94-2.514.94-2.514 1.625-5.062l.727-2.536L44 114l.57-1.832c.645-3.25.655-6.492.68-9.793l.063-2.062c.052-2.208.052-2.208-.313-5.313l-3-2c-.187-3.625-.187-3.625 0-7l-4-1-.113 3.727q-.099 2.448-.2 4.898l-.068 2.45c-.227 5.07-1.07 8.436-3.619 12.925-.81 2.495-1.483 5-2.156 7.535C31 119 31 119 29.539 121.293c-2.005 3.527-2.78 7.023-3.664 10.957-1.761 7.636-1.761 7.636-2.875 8.75-2.317 9.656-4.357 21.75 0 31h2l.043 2.266c.119 6.147.119 6.147 3.207 11.172L31 187c2.813 2 2.813 2 5 4v4c-6.304-1.23-9.425-4.968-13-10-1.211-2.308-2.098-4.545-3-7l-1-1c-1.339-6.6-1.112-13.229-1.062-19.937l.013-3.518q.018-4.273.049-8.545l3-1 .375-3.375c1.756-13.593 1.756-13.593 5.617-19.656 1.728-3.376 2.391-7.026 3.2-10.711.647-2.609 1.424-4.942 2.355-7.45 1.792-5.262 2.006-10.348 2.14-15.87l.104-2.913Q34.914 80.513 35 77"/><path fill="#EAE471" d="M143 64c3.293 2.195 3.479 2.437 4.25 6.063 1.558 9.068 1.896 20.791-3.07 28.785-1.693 3.088-2.72 6.378-3.805 9.715l-1.227 3.753a245 245 0 0 0-2.164 7.34c-.855 2.906-1.898 5.515-3.109 8.281-3.37 9.164-3.322 20.808.035 30.012 2.497 4.698 5.804 7.155 10.711 9.078 5.506 1.658 10.662 2.748 16.379 1.973 3.462-1.987 5.282-3.233 6.777-6.914 1.547-6.21 1.814-12.719 2.223-19.086h1v16h3c-1.473-18.826-1.473-18.826-5.125-37.312-.905-3.815-1.037-6.803-.875-10.688h2l.332 1.977c.946 5.217 2.248 9.283 4.668 14.023 2.29 7.215 2.366 14.493 2.375 22l.074 3.406c.024 6.788-.45 12.878-4.449 18.594-2.75 1.063-2.75 1.063-5 1v2c-6.869 3.878-16.369 2.939-24 2-4.24-1.395-7.483-3.28-11-6l-1.918-1.371c-2.837-2.163-4.976-4.2-6.082-7.629v-4h-2c-1.399-4.837-1.184-9.627-1.187-14.625l-.038-2.93-.005-2.797-.013-2.557C122 132 122 132 124 130l-1 20 2-1c.47-3.276.47-3.276.625-7.062l.227-3.91L126 135h2l-.187-2.562c.181-3.335.918-5.52 2.332-8.512.953-2.147 1.653-4.31 2.355-6.551 1.125-3.467 2.548-6.284 4.5-9.375 6.884-14.915 7.56-27.785 6-44"/><path fill="#F0DF23" d="m184 82 .113 2.64c.57 10.337 2.316 19.781 6.125 29.415.875 2.234 1.672 4.487 2.45 6.757.25.729.502 1.457.761 2.208C194 125 194 125 194 128h2c1.648 3.664 2.336 6.812 2.625 10.813l.227 2.957L199 144h2c1.237 5.764 1.148 11.449 1.125 17.313l.012 3.072-.004 2.916-.004 2.661C202 172 202 172 201 173l-.312 3.188c-.771 4.273-2.115 6.357-4.688 9.812l-2.125 3.25C192 192 192 192 190 194h-3l-1 3c-3.238 1.871-6.32 3.292-10 4 .688-1.937.688-1.937 2-4 2.625-.75 2.625-.75 5-1l-1-6 1.898-1.066c5.445-3.21 5.445-3.21 8.54-8.559L193 177c.625-1.354 1.272-2.7 2-4l2 1c.09-.996.09-.996.184-2.012l.254-2.675c.08-.87.162-1.74.246-2.637.316-2.676.316-2.676.87-5.137 1.183-6.74-.033-14.236-2.554-20.539-.35-1.33-.691-2.66-1-4h-3l-.586-3.762-.789-4.925-.383-2.475c-.683-4.221-1.555-7.886-3.242-11.838v-3l-3-1 .125-3.25c.174-3.543.174-3.543-1.125-5.5-1.456-3.276-1.211-6.487-1.125-10l.027-2.113c.024-1.713.06-3.425.098-5.137-4.57 2.46-6.276 4.323-8.219 9.04-1.629 6.173-1.625 12.605-1.781 18.96h3v13h2c5.806 7.258 5.341 17.994 5.313 26.813l.048 3.06c.004 5.238-.021 8.835-3.361 13.127l-.437 2.188C178 172 178 172 176.313 173.25c-2.855.926-5.33.886-8.313.75v-2l2.313-.5c3.249-1.813 3.894-3.534 5.087-6.977 1.197-5.036 1.028-10.123.975-15.273l.035-3.344c-.03-8.795-1.064-17.3-5.097-25.219-1.646-3.37-1.535-5.986-1.313-9.687h-2c1.12 8.327 1.12 8.327 3 16.5 2.981 10.434 3.268 20.745 3 31.5h-3v-16h-2c-1.775-3.55-1.368-7.864-1.518-11.795-.23-4.666-1.068-8.72-2.482-13.205-1.78-9.26-1.38-17.924 1-27h2v11c1.984-4.685 1.984-4.685 2.938-8.437 1.06-3.553 2.037-6.453 4.062-9.563 3.23-1.48 5.454-2 9-2"/><path fill="#FBF384" d="M202 141h2c1.663 6.333 2.356 12.271 2.313 18.813l-.015 2.65c-.2 11.057-2.231 22.215-10.153 30.47-1.987 1.787-4.026 3.44-6.145 5.067l-1.754 1.438c-4.38 3.413-8.925 5.078-14.246 6.562v2c-5.92 1.353-11.766 1.223-17.812 1.25l-3.487.063c-6.714.03-11.6-.509-17.701-3.313l-3.703-1.465-3.547-1.472-3.578-1.465c-3.103-1.563-4.855-3.061-7.172-5.598l-3-2v-2c-2.327-1.465-3.661-2.017-6.437-1.875-3.75 1.28-6.764 3.278-8.563 6.875-1.566.93-1.566.93-3.562 1.875a257 257 0 0 0-8.376 4.188c-8.035 3.947-15.042 5.424-24 5.312l-2.802.035c-6.534-.027-12.116-1.213-18.26-3.41v-2h-2v-3c3.041.46 5.296 1.146 8.078 2.516 4.494 1.953 8.766 1.977 13.61 1.922l2.666-.012c7.13-.157 13.073-1.661 19.646-4.426l2.188-.379c2.017-.453 2.017-.453 2.78-2.59C90 195 90 195 92.095 194.094l4.812-1.188c2.684-1.161 2.997-2.261 4.094-4.906 2.313-2.812 2.313-2.812 5-5 3.636.042 4.857.863 7.5 3.398l2.5 2.977c6.395 7.574 14.689 12.14 24.625 13.375L144 203v2c18.968 1.18 18.968 1.18 36-6l3.242-1.574c2.858-1.134 2.858-1.134 3.758-3.426l2.313-1.25c3.292-2.144 4.676-4.398 6.687-7.75l1.688-2.437c1.618-3.161 1.908-6.058 2.312-9.563l1-1c.076-2.207.083-4.417.063-6.625l-.012-2.006q-.019-3.184-.051-6.369a2224 2224 0 0 1-.062-8.375l-.036-3.773C201 142 201 142 202 141"/><path fill="#E6E47C" d="m204 136 2 1c.358 2.33.688 4.664 1 7l1 2.5c2.964 7.41 2.098 15.67 2 23.5h-2l.188 3.438c.026 4.9-1.428 9.036-3.188 13.562h-2l-.805 1.758C197.036 198.435 187.258 205.56 177 209h-3v3c-13.019 3.698-28.506 1.404-41-3l-2.785-.875c-4.914-1.701-8.332-3.918-12.278-7.312-3.848-3.21-6.722-5.114-11.804-5.247-3.322.676-5.299 2.495-7.832 4.668C91.796 205.226 84.094 208.132 76 209v-3c.941-.315 1.882-.63 2.852-.953l3.773-1.297 3.727-1.266c3.599-1.464 6.435-3.33 9.648-5.484h3l1-3c4.917-4.917 4.917-4.917 8.438-5.187 3.134 1.452 5.383 3.384 7.914 5.714 1.79 1.669 1.79 1.669 4.648 3.473v2l2.195.348c3.74.87 6.748 2.588 10.11 4.398 5.702 2.653 10.901 3.501 17.16 3.45l2.055-.01c2.14-.01 4.278-.035 6.417-.061q2.193-.016 4.385-.027 5.34-.035 10.678-.098v-2l2.238-.996c12.09-5.668 21.694-12.27 26.762-25.004 3.852-10.672 3.036-24.978 1-36-.112-2.678-.046-5.317 0-8"/><path fill="#FEFDF5" d="M208 136c6.115 11.18 6.287 29.501 3.977 41.809-3.83 12.514-12.108 23.14-23.54 29.504Q185.73 208.679 183 210l-2.336 1.219c-12.855 6.69-29.52 5.067-43.082.976-8.74-2.916-16.138-6.164-23.523-11.742-2.091-1.624-2.091-1.624-5.059-2.453-2.686 1.706-2.686 1.706-5.625 4.063-14.99 11.103-33.775 13.95-51.973 11.44C44.935 212.028 39.564 209.56 34 206c-.982-.59-1.965-1.178-2.977-1.785C21.357 198.182 14.52 191.025 11 180c-.25-3.062-.25-3.062 0-5l1 4h3l1.313 3.625c3.487 9.196 7.586 14.37 16.125 19.5l3.308 2.008C49.952 212.285 65.176 212.95 81 209l3.176-.707c7.654-1.97 12.607-4.984 18.386-10.367 2.627-2.075 4.118-2.742 7.438-2.926 4.047 1.909 7.277 4.209 10.75 7 11.378 8.687 27.166 10.493 41 10.188l3.594-.042q4.328-.051 8.656-.146v-3l2.309-.848C186.875 204.05 197.716 197.57 203 187h2l.438-3.937c.437-3.938.437-3.938 1.562-5.063.23-1.347.412-2.704.563-4.062L208 170h3c-.43-12.145-.43-12.145-2.59-24.062-.704-3.325-.533-6.553-.41-9.938"/><path fill="#FDFDEE" d="M138 48c3.114 1.051 3.958 1.927 5.633 4.828l1.492 3.422 1.508 3.39c6.197 15.227 5.575 31.24-.633 46.36a86 86 0 0 1-2.25 3.938c-1.767 3.093-2.172 4.581-1.75 8.062h6l2-7 3 1 1 6 9 2c-1.004 2.008-2.009 4.017-3.062 6-.935 1.993-1.435 3.864-1.938 6l-1.934-.254-2.504-.309-2.496-.316L149 131l-1 1c-1.666.04-3.334.043-5 0l-.367-1.898-.508-2.477-.492-2.46c-.5-2.352-.5-2.352-2.633-4.165a793 793 0 0 0-1.937 5.125l-1.09 2.883c-1.828 5.622-2.179 11.113-2.223 16.992l-.062 2.078c-.037 4.78 1.062 7.768 3.312 11.922l-1 2c-5.943-6.484-5.53-15.725-5.328-24.016.377-4.583 1.423-8.265 3.258-12.457 1.317-3.11 2.153-6.276 3.07-9.527.937-2.87 1.933-5.716 2.938-8.562l.763-2.21c1.144-3.248 2.293-6.217 3.94-9.255 1.668-3.65 2.005-7.023 2.172-10.973l.103-2.255C147.326 70.42 145.173 60.727 139 50z"/><path fill="#FDFDEF" d="M22.813 62.625C31.803 62.772 41.97 68.701 49 74c8.364 8.886 11.177 20.664 11.188 32.5l.037 2.262c.01 4.207-.296 7.394-2.225 11.238 5.022-1.045 5.022-1.045 8.938-4.125L68 114c1.875.313 1.875.313 4 1l2 3c3.557 1.219 3.557 1.219 7 2-.703 2.977-1.582 5.853-2.562 8.75l-.817 2.422L77 133c-2.763-.523-5.326-1.109-8-2l-1 1c-1.666.04-3.334.043-5 0l-1.312-3.375c-1.387-3.8-1.387-3.8-4.688-5.625l-.621 2.773-.816 3.602-.81 3.586C54 136 54 136 53 138a69 69 0 0 0-.133 4.395l-.004 2.646.012 2.772-.012 2.736c.007 4.271.038 8.29 1.137 12.451l-4-2c-.058-4.062-.094-8.125-.125-12.187-.017-1.151-.034-2.301-.05-3.487l-.02-3.369-.032-3.094c.238-3.008.995-5.128 2.227-7.863.41-1.595.788-3.2 1.125-4.812l.508-2.395L54 122h2c1.193-5.325 1.184-10.44 1.188-15.875l.037-2.934C57.235 97.737 56.945 93.12 55 88l-2-2-.812-2.25c-3.024-7.002-7.955-10.218-14.5-13.562l-2.186-1.194C30.601 66.432 26.518 65.38 21 65c.447 5.063 2.736 7.328 6 11 1.655 3.31 1.1 6.991 1.063 10.625l-.014 2.43Q28.029 92.027 28 95h-1l-.113-3.105q-.098-2.042-.2-4.082l-.068-2.042C26.384 81.39 25.626 78.527 23 75l-1.625-1.312C19.032 70.812 19.235 67.638 19 64c1-1 1-1 3.813-1.375"/><path fill="#EAEA8E" d="M21 64c6.375.453 10.971 2.018 16.563 5.063l2.26 1.215C47.05 74.325 52.383 78.913 55 87l2 2c1.406 5.579 1.184 11.346 1.188 17.063l.037 2.97.005 2.877.013 2.598C57.97 117.301 57.15 119.453 56 122h-2l-.402 2.555-.535 3.32-.528 3.305C52 134 52 134 51 136h-2c-.03 3.354-.047 6.708-.062 10.063l-.026 2.857c-.018 5.143.195 10.013 1.088 15.08h-3c-2.104-5.173-2.272-9.642-2.187-15.125l.001-2.418c.028-3.675.187-6.9 1.186-10.457h2l.375-3.5c.677-5.41 1.936-10.548 3.75-15.687 2.648-11.538 1.277-23.753-4.836-33.907C42.572 75.93 35.481 73.211 28 70l.656 1.695C31.21 79.045 31.802 86.251 31 94l-2 2-.148-3.29-.227-4.335c-.03-.713-.062-1.426-.094-2.16-.24-4.366-.794-8.14-2.531-12.215-1.967-1.15-1.967-1.15-4-2-1.648-2.354-2.101-3.394-1.625-6.25z"/><path fill="#EEE041" d="M35 77c3 0 3 0 4.719 1.61l3.562 4.25L45 85l1.645 1.91C49.342 91.068 49.44 96.167 50 101l.262 2.223c.533 9.547-3.184 19.86-6.262 28.777-1.215-3.645-.611-4.914.438-8.562 1.424-5.768 1.841-11.128 1.812-17.063l-.01-2.37c-.054-3.24-.209-5.912-1.24-9.005l-3-2c-.187-3.625-.187-3.625 0-7l-4-1-.113 3.727q-.099 2.448-.2 4.898l-.068 2.45c-.227 5.07-1.07 8.436-3.619 12.925-.81 2.495-1.483 5-2.156 7.535C31 119 31 119 29.539 121.293c-2.005 3.527-2.78 7.023-3.664 10.957-1.761 7.636-1.761 7.636-2.875 8.75-2.317 9.656-4.357 21.75 0 31h2l.043 2.266c.119 6.147.119 6.147 3.207 11.172L31 187c2.813 2 2.813 2 5 4v4c-6.304-1.23-9.425-4.968-13-10-1.211-2.308-2.098-4.545-3-7l-1-1c-1.339-6.6-1.112-13.229-1.062-19.937l.013-3.518q.018-4.273.049-8.545l3-1 .375-3.375c1.756-13.593 1.756-13.593 5.617-19.656 1.728-3.376 2.391-7.026 3.2-10.711.647-2.609 1.424-4.942 2.355-7.45 1.792-5.262 2.006-10.348 2.14-15.87l.104-2.913Q34.914 80.513 35 77"/><path fill="#EEDE2C" d="m111.188 180.375 2.73.336L116 181l.625 2.313c1.176 2.975 1.176 2.975 4.438 4.125L124 189c.875 3.188.875 3.188 1 6h2v2l2 .313c3 .687 3 .687 6.625 2.125 12.354 4.71 25.453 4.195 38.375 2.562-1 2-1 2-2.898 3.113-4.575 1.308-8.995 1.136-13.727 1.075l-2.89-.002c-7.063-.045-7.063-.045-10.485-1.186v-2l-3.312.313c-7.73.013-15.799-4.576-21.688-9.313a248 248 0 0 1-6.852-7.953c-2.136-2.507-2.136-2.507-6.148-2.047-2.68 2.405-5.02 5.021-7.437 7.688-2.822 2.545-4.99 3.172-8.563 4.312a91 91 0 0 0-4 4c-9.18 5.319-23.145 5.84-33.346 3.45C39.01 199.516 39.01 199.516 36 195a7400 7400 0 0 1 8.813 1.938l2.525.552 2.432.537 2.237.492C54 199 54 199 57 200c2.436.096 4.875.13 7.313.125l3.925.008c3.378-.12 6.476-.347 9.762-1.133l1-2h6v-2h2v-2l2.813-.812C92.917 191.03 93.814 190.28 96 188l2.563-.937c2.94-1.282 3.192-2.216 4.437-5.063 3.452-2.301 4.235-2.138 8.188-1.625"/><path fill="#F0DF30" d="M135 59c5.442 6.167 6.37 11.81 6.313 19.75l-.013 2.42c-.163 8.526-2.296 15.262-6.257 22.76-2.904 5.764-5.102 11.923-7.043 18.07h-2l.063 2.875C126 128 126 128 125 130h-2v27h2l1.125 3.688c1.667 4.364 3.971 6.81 7.875 9.312l1.91 1.414c8.279 5.227 18.636 4.442 28.09 3.586 1.34-.305 2.677-.63 4-1-1.75 3.875-1.75 3.875-4 5-6.115.428-12.239-.19-18.312-.875l-2.377-.238c-7.377-.815-7.377-.815-10.311-2.887l-2-3-3-1c-1.387-1.742-1.387-1.742-2.687-3.875l-1.325-2.117C123 163 123 163 123 160h-2c-.808-3.546-1.128-6.823-1.133-10.457l-.004-3.123.012-3.232-.012-3.198c.02-16.239.02-16.239 4.137-22.99l2-1c.652-2.025.652-2.025 1-4h2l1-7 3-1a78 78 0 0 0 2.125-7.812l.512-2.198c.463-1.994.914-3.992 1.363-5.99l.542-2.018c1.62-7.019-.165-14.078-1.542-20.982-.339-2-.675-3.999-1-6"/><path fill="#EBE88D" d="M111.313 9.875c3.216 1.346 3.282 1.896 4.562 5 .313.81.626 1.622.95 2.457 1.325 3.008 3.007 5.52 4.862 8.23C124.758 30.22 125.896 33.45 126 39a141 141 0 0 1-5-5v-2h-2c1.13 5.971 2.53 8.759 7 13l-1 2c-5.543-5.393-8.376-9.57-10.84-16.855-.966-2.298-.966-2.298-3.164-3.07L109 27c-2.33 2.33-2.274 3.091-2.687 6.25-1.117 5.527-3.957 7.516-8.313 10.75-1.722 1.62-3.353 3.303-5 5 1.199-3.083 2.477-6.063 4-9h2l.313-1.687c.819-2.757 2.184-4.87 3.687-7.313l1-3c2.375-2.687 2.375-2.687 5-5h3v-4c-1.95.195-1.95.195-4 1-1.284 1.984-1.284 1.984-2 4h-2v2h-2l-.312 2.313C100.91 31.349 100.197 31.885 98 34c-1.43 2.288-2.704 4.632-4 7h-3c3.326-8.797 7.801-16.94 14-24a132 132 0 0 0 3-6c1-1 1-1 3.313-1.125"/><path fill="#FAF292" d="m191 72-.484 2.453c-1.42 9.769-1.621 20.227 1.816 29.555.904 2.697.89 5.177.668 7.992h-3c-4.723-10.863-5.486-22.324-5-34-3.2.818-3.2.818-5.562 3.563L177 84h-2l-.375 2.313C174 89 174 89 172 92a136 136 0 0 0-1.625 6.688c-.26 1.179-.52 2.358-.79 3.574L169 105c-2.366-3.549-2.109-4.576-1.625-8.687l.336-3.012L168 91h-2c-1.391 10.61-2.954 24.092 2 34 .07 2.207.084 4.417.063 6.625l-.028 3.602L168 138h-1l-.148-2.52-.227-3.292c-.07-1.08-.14-2.158-.21-3.27-.227-3.104-.227-3.104-2.415-5.918-3.465-15.081-1.099-31.422 5.621-45.172C171 76 171 76 173.161 75.234L175 75c-.64.68-1.279 1.361-1.937 2.063-2.389 3.401-2.742 5.841-3.063 9.937l.996-1.758C175.434 77.954 181.604 70.554 191 72"/><path fill="#E3E580" d="M26 105c1.336 3.684.645 5.96-.562 9.625l-1.122 3.465c-.94 2.808-1.895 5.611-2.851 8.414C16.47 141.162 13.73 154.362 15 170l1 1 .688 3.875C17.946 180.88 20.953 185.743 24 191c.678 1.327 1.35 2.659 2 4-4.75-.75-4.75-.75-7-3-2.104-4.377-3.407-8.139-4-13h-3v-4h-2c-4.156-17.589 1.063-35.532 7-52h2l.516-2.414c1.372-6.002 2.6-10.764 6.484-15.586"/><path fill="#F1DF21" d="M110.938 25.875c5.433 2.963 7.781 11.965 10 17.438 1.35 2.144 2.744 2.76 5.062 3.687v3h2c1.508 1.969 1.508 1.969 3.125 4.5l1.633 2.531L134 59l-3-1v-2l-3-1v-2l-4-2v-3h-3l-1-5h-2l-.812-1.812c-1.07-2.218-1.07-2.218-2.75-3.75C113 36 113 36 112 33l-3-1-.125 2.063c-1.065 3.574-2.783 5.384-5.254 8.109-5.739 6.472-9.64 13.474-12.46 21.621C89.794 66.39 88.701 66.99 86 68v2h-2c-2.096 10.22-.924 19.274 3 29a413 413 0 0 0 4 4c.61 2.36.61 2.36.75 4.75l.172 2.422L92 112l-1-3h-2l-.988-2.379-1.325-3.183-1.378-3.32a340 340 0 0 0-3.059-7.055c-2.056-5.037-2.367-9.453-2.312-14.876l.027-3.519L80 72h2l.188-2.5c.879-3.788 2.23-6.093 4.355-9.29 1.58-2.396 3.015-4.853 4.457-7.335 2.973-4.958 5.818-9.404 10.688-12.687 2.984-2.824 3.207-5.09 3.757-9.067.807-3.085 2.2-5.034 5.493-5.246"/><path fill="#FAF6AB" d="M168 111h2l.332 1.977c.946 5.217 2.248 9.283 4.668 14.023 2.29 7.215 2.366 14.493 2.375 22l.074 3.406c.024 6.788-.45 12.878-4.449 18.594-2.75 1.063-2.75 1.063-5 1v2l-2-1 1.875-3.187c1.64-2.863 2.995-5.705 4.125-8.813h-3l-.125 2.188c-.975 3.134-2.258 4.87-4.879 6.863-5.715 2.718-12.406 1.344-18.184-.551A130 130 0 0 1 142 168c3.524-1.175 5.322-.423 8.816.5 5.121 1.173 8.84 1.271 13.559-1.437 5.981-5.803 5.128-16.334 5.625-24.063h1v16h3c-1.473-18.826-1.473-18.826-5.125-37.312-.905-3.815-1.037-6.803-.875-10.688"/><path fill="#EEEC96" d="m201 64 1 3-1 2h-3l-.312 3.125c-.68 3.826-1.8 6.509-3.688 9.875h-2l1 21-1-2h-2c-1.17-4.653-1.184-9.173-1.187-13.937l-.038-2.381c-.011-4.631.455-8.324 2.225-12.682-6.896 1.467-13.293 4.434-17.648 10.172a89 89 0 0 0-2.477 4.289L170 88h-1c-.331-4.746.264-7.128 3-11 5.657-4.911 12.077-8.261 19-11l2.75-1.25c2.53-.843 4.6-.901 7.25-.75"/><path fill="#FBF176" d="M126 154a315 315 0 0 1 4.535 6.14l1.528 2.11 1.535 2.14L135 166h2l1-4a91 91 0 0 1 4 4v2c11.066 3.023 11.066 3.023 21.996 1.02 2.346-1.829 3.824-3.545 4.879-6.333L169 161h3c-.694 5.722-3.464 11.336-8 15-3.129.681-6.305.57-9.5.563l-2.733-.006c-7.494-.201-12.783-1.916-18.767-6.557l-1.953-1.441c-2.148-1.681-3.816-3.098-5.047-5.559a78 78 0 0 1-.062-4.625l.027-2.477z"/><path fill="#F1DE1B" d="M197 140h2v4h2c1.237 5.764 1.148 11.449 1.125 17.313l.012 3.072-.004 2.916-.004 2.661C202 172 202 172 201 173l-.312 3.188c-.771 4.273-2.115 6.357-4.688 9.812l-2.125 3.25C192 192 192 192 190 194h-3l-1 3c-3.238 1.871-6.32 3.292-10 4 .688-1.937.688-1.937 2-4 2.625-.75 2.625-.75 5-1l-1-6 1.898-1.066c5.445-3.21 5.445-3.21 8.54-8.559L193 177c.625-1.354 1.272-2.7 2-4l2 1c.09-.996.09-.996.184-2.012l.254-2.675c.08-.87.162-1.74.246-2.637.316-2.676.316-2.676.875-5.14.51-2.936.35-5.448.066-8.411l-.3-3.164A206 206 0 0 0 197 140"/><path fill="#E1E16F" d="m204 136 2 1c.358 2.33.688 4.664 1 7l1 2.5c2.964 7.41 2.098 15.67 2 23.5h-2l.188 3.438c.026 4.9-1.428 9.036-3.188 13.562h-2l-.805 1.758C198.638 195.43 192.514 201.223 186 205c-3.5.875-3.5.875-6 1v-3l2.656-1.25c10.489-5.49 17.144-12.883 21.145-23.969 2.69-10.395 2.137-23.29.199-33.781-.112-2.678-.046-5.317 0-8"/><path fill="#E1DF7C" d="M166 91h2v11l2-1 .402 3.324.536 4.364.263 2.185c.462 3.747.99 7.435 1.799 11.127-2-1-2-1-3-4-.04-2.333-.044-4.667 0-7h-2c1.12 8.327 1.12 8.327 3 16.5 2.981 10.434 3.268 20.745 3 31.5h-3v-16h-2c-1.775-3.55-1.368-7.864-1.518-11.795-.23-4.666-1.068-8.72-2.482-13.205-1.78-9.26-1.38-17.924 1-27"/><path fill="#E5E374" d="M52 89h2c2.735 5.463 3.484 9.736 3.375 15.813l-.022 2.41c-.121 5.154-.765 9.66-2.556 14.527-1.18 3.333-1.741 6.747-2.367 10.219C52 134 52 134 51 136h-2c-.03 3.354-.047 6.708-.062 10.063l-.026 2.857c-.018 5.143.195 10.013 1.088 15.08h-3c-2.104-5.173-2.272-9.642-2.187-15.125l.001-2.418c.028-3.675.187-6.9 1.186-10.457h2l.375-3.5c.677-5.41 1.936-10.548 3.75-15.687 2.077-9.052.902-18.66-.125-27.813"/><path fill="#F1DF18" d="m38 85 5 1v9l-4 1-.113 2.055C38.414 104.74 37.207 110.679 35 117l-1 2.938c-1 2.062-1 2.062-2.5 3.437-4.077 4.417-4.13 12.269-4.937 17.953C26 144 26 144 24 147c-2.245 6.206-2.591 12.446-3 19h-1c-.312-10.74.322-20.83 4-31a668 668 0 0 0 2.121-8.316C27 124 27 124 28.47 121.574c1.78-2.992 2.644-5.854 3.593-9.199C33.1 108.734 33.892 106.164 36 103c.453-2.022.453-2.022.633-4.23l.254-2.432.238-2.525.262-2.561c.212-2.083.413-4.168.613-6.252"/><path fill="#F9F8CB" d="M208 136c6.115 11.18 6.287 29.501 3.977 41.809C208.895 187.88 202.542 197.763 194 204c-3.574 1.759-7.175 2.916-11 4q-2.597.864-5.187 1.75-1.905.628-3.813 1.25v-2l2.309-.848C186.875 204.05 197.716 197.57 203 187h2l.438-3.937c.437-3.938.437-3.938 1.562-5.063.23-1.347.412-2.704.563-4.062L208 170h3c-.43-12.145-.43-12.145-2.59-24.062-.704-3.325-.533-6.553-.41-9.938"/><path fill="#FBF285" d="M140 92h3c-1.122 6.735-3.34 11.982-6.48 18.027-4.106 8.032-6.53 16.195-8.52 24.973h-2v14l-3 1c-.337-9.837-.021-18.504 3-28h2l-.187-2.187c.227-3.412 1.43-4.898 3.187-7.813a188 188 0 0 0 2.438-6.375c1.824-4.87 3.8-9.227 6.562-13.625"/><path fill="#FCF592" d="M90 115c3.037 2.525 3.937 5.095 5.125 8.813l1.008 3.082c2.798 10.02 3.725 21.902-1.309 31.3C92.46 162.198 92.46 162.198 91 164h-2l1-7h-2l-.687 2.188c-1.561 3.344-3.616 5.328-6.313 7.812l-2-1 2.25-2c4.327-4.327 6.99-9.927 7.75-16h1v8h2c1.029-5.135 1.217-10.098 1.25-15.312l.063-2.436c.033-5.204-.75-9.375-2.647-14.227-1.018-3.095-.872-5.794-.666-9.025"/><path fill="#EDDF39" d="M92 112h2c6.512 14.512 6.665 30.448 4 46h-2l-.34 2.45c-1.586 8.592-1.586 8.592-4.722 11.39-2.277 1.232-4.524 2.231-6.938 3.16l-1.813 1.035c-4.26 1.879-9.041 1.292-13.624 1.278l-3.143.048c-9.377.006-9.377.006-13.42-3.361 3.75-1.125 3.75-1.125 6 0 2.886.126 5.738.185 8.625.188l2.371.037c5.325.013 9.92-.597 15.004-2.225l1-2 1.898-.258c2.393-.58 2.393-.58 3.516-3.36l1.211-3.257c1.276-3.372 2.369-6.116 4.375-9.125 2.487-9.548 1.141-18.947-1.489-28.267-1.297-4.6-2.011-8.996-2.511-13.733"/><path fill="#FEFEEE" d="M202 62c2 3 2 3 1.777 4.941-.842 2.23-1.892 4.015-3.214 5.996-6.45 10.16-4.943 18.892-2.477 30.403 1.01 4.047 2.289 7.867 3.793 11.754 1.392 3.61 2.677 7.247 3.934 10.906.23.648.462 1.296.7 1.963 1.602 4.692 1.602 4.692.487 8.037-1.961-4.769-3.887-9.517-5.437-14.437-1.118-3.506-2.57-6.698-4.188-10-2.439-5.186-3.239-9.865-3.375-15.563h-2V82h2c1.47-4.303 2.774-8.623 4-13h3v-4c-5.337.452-8.47 1.055-13 4a129 129 0 0 1-6.133 2.156c-2.113.955-3.331 2.127-4.867 3.844l-2-1c4.643-4.286 9.181-6.624 15-9l1.957-.914C195.4 62.48 198.192 61.347 202 62"/><path fill="#ECE98E" d="M49 136h1v25l5 2 1.883 2.074c2.93 2.666 5.083 2.558 8.992 2.738l3.617.208c3.299-.019 6.28-.373 9.508-1.02l-1 4h-2v2c-3.416 1.04-6.564 1.134-10.125 1.125l-3.195.008C60 174 60 174 58 173v-3h-5v-2l-1.937-.875C49 166 49 166 48 164h2l-1-2.687c-2.311-8.065-1.284-17.128 0-25.313"/><path fill="#F2E13D" d="M135 59c5.442 6.167 6.37 11.81 6.313 19.75l-.013 2.42c-.163 8.526-2.296 15.262-6.257 22.76-2.904 5.764-5.102 11.923-7.043 18.07h-2l.125 2.875C126 128 126 128 124 130c.43-6.251 1.014-12.042 3-18h2l1-7 3-1a78 78 0 0 0 2.125-7.812l.512-2.198c.463-1.994.914-3.992 1.363-5.99l.542-2.018c1.62-7.019-.165-14.078-1.542-20.982-.339-2-.675-3.999-1-6"/><path fill="#E6E785" d="m104 195 2 1c-6.487 6.585-12.085 10.524-21 13l-3.687 1.188C68.756 213.268 55.223 213.35 43 209v-1c7.224-.965 14.28-1.12 21.563-1.062l3.345.013q4.047.018 8.092.049v2c10.177-3.02 19.986-6.815 28-14"/><path fill="#F8F59D" d="M109 18c2.125.375 2.125.375 4 1v5l-4-1-.812 1.938C107 27 107 27 104 28l-.312 2.813c-.72 3.337-1.233 4.038-3.688 6.187l-1 3h-2l-2 5-4-1v-2h-2l-.75 2.688C87 48 87 48 85.156 50.28c-2.397 3.023-4.113 6.118-5.906 9.532l-1.86 3.519L76 66c-1-3-1-3 .512-6.398a295 295 0 0 1 2.175-3.977l1.069-2A63 63 0 0 1 87 43a113 113 0 0 0 2.25-3.312L91 37l1 2-1 2c3.693-1.231 3.86-2.129 5.563-5.5 2.233-4.398 2.233-4.398 4.437-5.5.652-2.025.652-2.025 1-4h2v-2h2l.375-1.875C107 20 107 20 109 18"/><path fill="#E9EB9C" d="m84 108 3 1a82 82 0 0 1 2.563 7.688l1.253 4.261.6 2.11c.496 1.647 1.097 3.263 1.72 4.867 1.187 4.226 1.155 8.207 1.114 12.574l.023 2.512c-.015 4.726-.456 8.548-2.273 12.988h-2l-.06-1.797c-.222-21.144-.222-21.144-5.94-41.203-.187-2.937-.187-2.937 0-5"/><path fill="#E3E47F" d="M89 42h2c-.425 5.415-1.457 7.95-5 12a172 172 0 0 0-4 7l-1.044 1.688C77.516 68.65 77.343 74.228 77.25 81l-.09 3.215Q77.055 88.107 77 92c-2-1-2-1-2.633-2.855l-.492-2.332-.508-2.293C71.443 71.315 77.315 60.784 84 50l1.563-2.664C86.643 45.516 87.81 43.75 89 42"/><path fill="#FAF076" d="M88 157h2l-1 7h2l-1 5-5 1-1 3c-5.717 1.91-11.069 2.338-17.062 2.313l-2.315.048c-5.266.005-8.962-.87-13.623-3.361l-1-2h2l1-2v2h5v3h18v-4h3v-2l2.25-1.187c3.683-2.428 4.762-4.91 6.75-8.813"/><path fill="#EEE042" d="M114 187c5.025 1.285 7.508 3.217 11 7l2 1v2l2 .313c3 .687 3 .687 6.625 2.125 12.354 4.71 25.453 4.195 38.375 2.562-1 2-1 2-2.898 3.113-4.575 1.308-8.995 1.136-13.727 1.075l-2.89-.002c-7.063-.045-7.063-.045-10.485-1.186v-2l-3.312.313c-7.781.013-15.711-4.617-21.688-9.313-5-5.266-5-5.266-5-7"/><path fill="#E6E05F" d="M68 116c3 1 3 1 4 3 3.03.658 3.03.658 6 1l-2 11-6.64-.781c-2.629-.28-2.629-.28-6.36-.219l-1-9 2.438-1.375c2.65-1.372 2.65-1.372 3.562-3.625"/><path fill="#E8E487" d="m181 205 1 2c-2.906 1.257-4.796 2-8 2v3c-4.893 1.417-9.756 1.184-14.812 1.188l-2.948.037c-5.486.01-10.058-.397-15.24-2.225 3.633-2.422 5.526-2.304 9.855-2.414l2.005-.059c2.11-.06 4.218-.106 6.327-.152q2.148-.057 4.295-.117 5.259-.142 10.518-.258v-2c3.625-2.125 3.625-2.125 7-1"/><path fill="#FDFB95" d="M169 161h3c-.468 4.99-2.89 9.152-6 13-7.49 2.497-16 1.475-23.39-.953C141 172 141 172 140.265 169.89L140 168c2.802.456 5.592.912 8.367 1.512 5.059.938 10.884 1.823 15.645-.489 2.329-1.838 3.81-3.554 4.863-6.335z"/><path fill="#FBF9D7" d="m173 75 2 1-1.937 1.563C169.875 81.329 170 85.213 170 90l.625 3.188c.447 4.547-.328 7.464-1.625 11.812-2.366-3.549-2.109-4.576-1.625-8.687l.336-3.012L168 91h-2c-1.391 10.61-2.954 24.092 2 34 .07 2.207.084 4.417.063 6.625l-.028 3.602L168 138h-1l-.148-2.52-.227-3.292c-.07-1.08-.14-2.158-.21-3.27-.227-3.104-.227-3.104-2.415-5.918-3.459-15.054-1.223-31.575 5.816-45.172C171 76 171 76 173 75"/><path fill="#FEFDF8" d="m151 111 2 1c.625 3.063.625 3.063 1 6l9 2c-1.004 2.008-2.009 4.017-3.062 6-.935 1.993-1.435 3.864-1.938 6l-1.934-.254-2.504-.309-2.496-.316L149 131l-1 1c-1.666.04-3.334.043-5 0l-1-9 4 2v4l3-2c3.188.375 3.188.375 6 1-.582-5.309-.582-5.309-3-10-.125-2.687-.125-2.687 0-5l-2-1z"/><path fill="#F6EA72" d="M114 23c2 1.813 2 1.813 4 4v3h2l-.625 2.188C118.92 35.6 119.347 36.994 121 40c2.52 2.772 2.52 2.772 5 5l-1 2c-5.543-5.393-8.376-9.57-10.84-16.855-.966-2.298-.966-2.298-3.164-3.07L109 27c-2.33 2.33-2.274 3.091-2.687 6.25-1.117 5.527-3.957 7.516-8.313 10.75-1.722 1.62-3.353 3.303-5 5 1.199-3.083 2.477-6.063 4-9h2l.313-1.687c.819-2.757 2.184-4.87 3.687-7.313l1-3c2.324-2.24 3.495-2.966 6.75-3.187L113 25z"/><path fill="#FEFEF6" d="M115 9c1.169 2.044 1.98 4.144 2.84 6.336 1.714 3.936 4.078 7.373 6.43 10.953 1.583 2.48 2.985 4.984 4.355 7.586 1.98 3.673 4.377 6.208 7.375 9.125 1.313 2.813 1.313 2.813 2 5l-5-5-2.437-2.125c-3.056-3.428-4.906-7.044-7.016-11.102-1.414-2.535-2.927-4.697-4.734-6.96C115.877 19.09 114.447 15.5 113 11c-2.385-.128-2.385-.128-5 1-1.21 1.893-2.067 3.84-2.973 5.895-1.212 2.484-2.892 4.343-4.73 6.39-2.227 2.944-3.65 6.298-5.184 9.64C94 36 94 36 92 37c2.792-7.159 5.539-13.539 11-19 1.093-2.327 2.057-4.672 2.973-7.074C107.975 7.172 111.529 7.476 115 9"/><path fill="#FDF692" d="M40 200c3.046.462 5.289 1.144 8.07 2.527 4.543 1.98 8.857 1.845 13.743 1.723l2.672-.033c5.884-.1 11.679-.439 17.515-1.217v2c-6.471 2.878-11.833 3.462-18.875 3.375l-2.816.035C53.757 208.383 48.16 207.205 42 205v-2h-2z"/><path fill="#EFE44E" d="M89 57c1 2 1 2 .25 5.063L88 65l-3 1-.437 2.75C84 72 84 72 83.484 73.96 81.48 82.404 83.826 91.136 87 99a413 413 0 0 0 4 4c.61 2.36.61 2.36.75 4.75l.172 2.422L92 112l-1-3h-2l-.988-2.379-1.325-3.183-1.378-3.32a340 340 0 0 0-3.059-7.055c-2.056-5.037-2.367-9.453-2.312-14.876l.027-3.519L80 72h2l.188-2.5C83.26 64.875 85.595 60.405 89 57"/><path fill="#FCF79A" d="m136 204 3.813-.062 2.144-.036C144 204 144 204 147 205c1.86.094 3.723.13 5.586.133l3.32.004 3.469-.012 3.445.012 3.328-.004 3.037-.004c2.707-.124 5.178-.521 7.815-1.129l-1 2h-2v2c-5.94 1.366-11.808 1.184-17.875 1.188l-3.512.037c-5.926.01-11.031-.166-16.613-2.225z"/><path fill="#E2E382" d="m112 13 2 5-2.875.75c-3.212.936-3.212.936-4.5 3.375L106 24h-2v2h-2l-.312 2.313C100.91 31.349 100.197 31.885 98 34c-1.43 2.288-2.704 4.632-4 7h-3c3.312-8.76 7.751-17.016 14-24l1-3c3-1 3-1 6-1"/><path fill="#E2DE74" d="m21 64 8 1 1 3h2v2h-4l.656 1.695C31.21 79.045 31.802 86.251 31 94l-2 2-.148-3.29-.227-4.335c-.03-.713-.062-1.426-.094-2.16-.24-4.366-.794-8.14-2.531-12.215-1.967-1.15-1.967-1.15-4-2-1.648-2.354-2.101-3.394-1.625-6.25z"/><path fill="#DFDF79" d="M26 105c1.336 3.684.645 5.96-.562 9.625l-1.125 3.46L23 122l-1.5 4.54q-1.864 5.624-3.754 11.24c-1.255 3.737-2.5 7.479-3.746 11.22h-1c-.328-5.136.466-8.808 2.215-13.625.791-2.394 1.281-4.707 1.723-7.187C18.506 119.879 20.756 111.742 26 105"/><path fill="#F9F076" d="m92 43 1 2 2 1c-1.914 4.786-4.09 8.72-7 13-3.757 6.182-3.757 6.182-6 13h-2c-.631-9.03-.631-9.03 1.75-12.687L84 57a248 248 0 0 0 4-7q1.122-1.97 2.25-3.937z"/><path fill="#EEE33F" d="M41 132h2c-.01.806-.02 1.613-.032 2.443-.042 3.686-.067 7.371-.093 11.057-.017 1.268-.034 2.537-.05 3.844-.035 6.53-.06 12.473 2.175 18.656 2.429 1.389 2.429 1.389 5 2l2 3-8-1-1-6-3-1q-.037-6.327-.055-12.653-.008-2.151-.02-4.303c-.013-2.063-.018-4.126-.023-6.189l-.016-3.76C40 135 40 135 41 132"/><path fill="#F0EFAF" d="M28 80h1l1 14h1c-.688 6.192-2.28 12.02-4 18-1-3-1-3-1-6-2.368 3.657-3.866 7.167-5.187 11.313l-1.043 3.238L19 123c-1.1-3.301-.954-3.858.145-6.984l.802-2.336.866-2.43q.824-2.367 1.644-4.734l.8-2.3C24.277 101.172 25.15 98.099 26 95h2z"/><path fill="#FEFEF8" d="M138 48c3.114 1.051 3.958 1.927 5.633 4.828l1.492 3.422 1.508 3.39c5.77 14.18 5.65 29.173.554 43.544-1.664 3.947-3.75 7.297-6.187 10.816l-1-2a143 143 0 0 1 3.375-7.875q.985-2.15 1.96-4.305l.893-1.929c4.067-9.962 3.316-24.312-.478-34.204A140 140 0 0 0 143 58l-1.187-2.492A175 175 0 0 0 139 50z"/><path fill="#EAE788" d="M130 134h1l.113 3.148c.083 13.425.083 13.425 5.887 24.852.625 2.625.625 2.625 1 5-3.491-.565-5.03-1.619-7.254-4.352-3.7-5.22-3.275-9.865-2.684-16.023l.202-3.02c.52-7.174.52-7.174 1.736-9.605"/><path fill="#FEFDF2" d="m11 175 1 4h3l1.313 3.625c3.487 9.196 7.586 14.37 16.125 19.5l3.308 2.008C40.43 206.82 44.616 209.208 50 210l-3 2c-11.213-2.683-24.588-11.32-30.937-21.11C10.278 180.598 10.278 180.598 11 175"/><path fill="#EFDD26" d="m20 167 2 3 2 2h1l.043 2.266c.119 6.147.119 6.147 3.207 11.172L31 187c2.813 2 2.813 2 5 4v4c-5.463-1.066-8.166-3.699-11.594-7.84-1.942-2.983-2.203-5.647-2.406-9.16l-1.062-2c-1.397-2.978-1.062-5.764-.938-9"/><path fill="#F1DE4A" d="M92 112h2c6.512 14.512 6.665 30.448 4 46h-2l-.812 2.375C94 163 94 163 91 165c1.057-2.765 2.193-5.371 3.563-8 4.721-9.855 2.805-21.141-.052-31.267-1.297-4.6-2.011-8.996-2.511-13.733"/><path fill="#FAEE6E" d="M141 62c4.454 4.454 4.123 13.318 4.188 19.375-.076 3.617-.44 7.076-1.188 10.625h-4l.016-1.956q.029-4.397.047-8.794l.025-3.078.01-2.969.016-2.73c-.106-2.307-.463-4.264-1.114-6.473h2z"/><path fill="#F0E452" d="M175 128h2c4.221 30.114 4.221 30.114 0 43-1.375 1.715-1.375 1.715-3 3-3.187.188-3.187.188-6 0v-2l2.313-.5c3.242-1.81 3.902-3.522 5.096-6.959 1.19-5.12.936-10.314.841-15.541l-.016-3.445c-.055-5.934-.342-11.687-1.234-17.555"/><path fill="#E7E03E" d="M150 116h2c3.13 3.972 3.292 7.042 3 12l-2.812-.062c-3.21-.096-3.21-.096-6.188 1.062l-.875-2.25A82 82 0 0 0 142 120l3.438-.875L149 118z"/><path fill="#EBE133" d="m177 83 2 1-3 1-.375 2.688C175 91 175 91 174 93.188c-1.321 3.716-1.457 7.208-1.625 11.124l-.117 2.245A785 785 0 0 0 172 112h3v15c-5.774-8.662-6.291-22.081-4.648-32.156.996-3.852 2.68-7.4 4.648-10.844z"/><path fill="#FCF590" d="m185 72 2 1-1 8-1-3c-3.2.818-3.2.818-5.562 3.563L177 84h-2l-.187 2.188c-1.058 3.659-3.019 5.304-5.813 7.812 1.222-8.063 4.386-13.518 10.879-18.418A268 268 0 0 1 185 72"/><path fill="#F7F6B1" d="M146 66c4.58 4.58 3.31 11.84 3.315 17.895-.103 7.156-1.105 12.667-4.315 19.105a637 637 0 0 0-1.754 3.953c-4.842 10.845-4.842 10.845-7.246 12.047a573 573 0 0 1 5-14.687l.938-2.637C143 99 143 99 144.578 96.184c1.708-3.824 2.021-7.313 2.172-11.434l.11-2.26c.223-5.589-.068-10.945-.86-16.49"/><path fill="#FDFDF3" d="M202 62c2 3 2 3 1.777 4.941-.842 2.23-1.892 4.015-3.214 5.996C196.52 79.287 195.55 84.548 195 92h-1c-.533-12.205-.533-12.205 3-18 .7-2.736.7-2.736 1-5h3v-4c-5.337.452-8.47 1.055-13 4a129 129 0 0 1-6.133 2.156c-2.113.955-3.331 2.127-4.867 3.844l-2-1c4.643-4.286 9.181-6.624 15-9l1.957-.914C195.4 62.48 198.192 61.347 202 62"/><path fill="#F0DF26" d="M109 26c1.813 0 1.813 0 4 1 3.386 5.13 5.633 10.629 7.938 16.313 1.35 2.144 2.744 2.76 5.062 3.687v3h2c1.508 1.969 1.508 1.969 3.125 4.5l1.633 2.531L134 59l-3-1v-2l-3-1v-2l-4-2v-3h-3l-1-5h-2l-1.172-2.59-1.578-3.347c-.51-1.103-1.02-2.205-1.547-3.34-1.417-2.824-1.417-2.824-3.781-3.664-2.008-.214-2.008-.214-3.922.941 1.875-3.875 1.875-3.875 3-5"/><path fill="#FBFBE6" d="M17 123c2.281 6.844-1.104 14.885-4.025 21.225-1.14 3.242-1.295 5.955-1.39 9.388l-.116 3.78-.094 3.92-.117 3.978Q11.117 170.145 11 175h-1c-4.156-17.589 1.063-35.532 7-52"/><path fill="#F0DF15" d="M182 84v12l-2-2-3 2-2 1c-1.054 3.162-1.313 5.87-1.562 9.188l-.254 3.292L173 112h-1c-1.011-18.11-1.011-18.11 5-26 3-2 3-2 5-2"/><path fill="#E0E062" d="M169 128c4.076 3.261 3.99 7.296 4.66 12.215.563 6.27.497 12.494.34 18.785h-3l-.184-3.29-.254-4.335-.119-2.16c-.246-4.14-.753-8.123-1.443-12.215a91 91 0 0 1-.062-4.875l.027-2.367z"/><path fill="#F6EF7F" d="M49 110h1c.125 7.625.125 7.625-1 11l2 1-3 14h-2l-1-2-2 7c-1.407-4.453-.08-7.823 1.313-12.125C46.255 122.616 47.87 116.466 49 110"/><path fill="#FCF387" d="M192 113h2c4.65 8.137 8.508 18.512 8 28-7.1-7.1-8.572-18.454-10-28"/><path fill="#F4E462" d="M182 78h3l.297 3.813c.838 18.023.838 18.023 7.289 34.296 1.807 2.417 1.905 4.157 2.101 7.141l.2 2.703L195 128c-1.712-2.568-2.492-4.201-3.375-7.062-1.076-3.376-2.304-6.615-3.687-9.876C184.06 101.39 183.73 92.363 184 82l-5 1c1.313-2.5 1.313-2.5 3-5"/><path fill="#E3DE7F" d="M193 75v28l-1-2h-2c-1.18-4.704-1.22-9.306-1.25-14.125l-.062-2.457-.016-2.363-.028-2.141C189.058 77.688 190.399 75 193 75"/><path fill="#FAEF7D" d="M130 46c8.103 3.21 8.103 3.21 10 6v4c-2.993-.998-3.948-1.752-6-4l1 7c-2.964-2.808-5.445-5.183-7-9h-2l1-3 3 1z"/><path fill="#FDFBD8" d="M54 122c1.113 3.364.825 5.57.063 9-1.07 5.85-1.26 11.511-1.25 17.438l-.002 2.619C52.846 155.159 52.973 159 54 163l-4-2c-.058-4.062-.094-8.125-.125-12.187-.017-1.151-.034-2.301-.05-3.487l-.02-3.369-.032-3.094c.238-3.008.995-5.128 2.227-7.863.41-1.595.788-3.2 1.125-4.812l.508-2.395z"/><path fill="#EDE883" d="M193 96h1a7982 7982 0 0 1 3 13l.645 2.762c.72 3.14 1.355 6.005 1.355 9.238h-2c-3-5.75-3-5.75-3-8h-2l-1 2-1-3h3l-2-11h1z"/><path fill="#F3F3C1" d="M74 66h1c.125 7.75.125 7.75-1 10a80 80 0 0 0 2 15l2-4c.682 5.37 1.115 10.585 1 16-5.13-4.399-6.312-12.532-7-19-.385-6.299.387-11.91 2-18"/><path fill="#DFE06E" d="M91 131h3q.08 4.563.125 9.125c.017.856.034 1.712.05 2.594.038 4.847-.28 8.728-2.175 13.281h-2z"/><path fill="#FDFA9D" d="M51 96h2c2.515 8.356 1.67 17.203-2 25h-2z"/><path fill="#EAE686" d="m135 111 1 3h2c-1.612 6.86-3.36 13.462-6 20h-1l.063-3.25c.141-3.487.141-3.487-.72-5.594-.52-3.27.765-5.422 2.095-8.406l1.433-3.266z"/><path fill="#F2DE19" d="M124 117h2q-.463 3.188-.937 6.375l-.528 3.586C124 130 124 130 123 132h-2q.212 5.313.438 10.625l.119 3.027c.209 4.858.473 9.57 1.443 14.348h-2c-.808-3.546-1.128-6.823-1.133-10.457l-.004-3.123.012-3.232-.012-3.198c.02-15.83.02-15.83 4.137-22.99"/><path fill="#F1DE1A" d="M125 194c4.778-.329 7.284.401 11.313 2.938 5.12 2.98 8.814 3.782 14.687 4.062l2 1c1.87.228 3.747.41 5.625.563l3.04.253L164 203v1c-13.319.589-24.666-2.13-37-7v-2z"/><path fill="#FCF69D" d="M109 18c2.125.375 2.125.375 4 1v5l-4-1-.812 1.938C107 27 107 27 104 28l-.375 2.938L103 34l-2 1c-1.033-2.788-1.045-3.868-.062-6.75L102 26h2v-2h2l.375-1.875C107 20 107 20 109 18"/><path fill="#F3F1D1" d="M54 163c.682.643 1.364 1.286 2.066 1.95 3.51 2.452 5.63 2.664 9.871 2.863l3.59.207c3.285-.019 6.258-.377 9.473-1.02l-1 4c-8.136 1.627-13.34 2-20.336-2.516-1.867-1.665-2.696-3.196-3.664-5.484"/><path fill="#E3E579" d="m185 73-2.012 1.25c-5.379 3.518-9.105 6.539-12.148 12.246L170 88h-1c-.327-4.683-.07-7.371 3-11 8.18-5.779 8.18-5.779 13-4"/><path fill="#E4E178" d="m204 136 2 1c.358 2.33.688 4.664 1 7l1.063 2.625c1.035 2.622 1.097 4.582.937 7.375h-1l-1 17-2 1 .016-1.924q.029-4.35.047-8.701l.025-3.027c.016-4.919-.143-9.504-1.088-14.348-.112-2.678-.046-5.317 0-8"/><path fill="#F2DC16" d="M132 59h3c3.65 11.408 5.324 21.367 2 33h-1c.01-.605.02-1.21.032-1.833.042-2.764.067-5.528.093-8.292l.05-2.883c.036-5.023.003-9.346-2.175-13.992l-2-1z"/><path fill="#FCF590" d="M118 31c4.18 1.393 5.466 4.362 7.688 7.938.415.646.83 1.292 1.26 1.958C130 45.724 130 45.724 130 48c-2.798-.386-3.82-.801-5.75-2.937C123 43 123 43 123 41l-3-1c-1.705-3.32-2-5.185-2-9"/><path fill="#FAF182" d="m82 92 .813 1.688c1.19 2.41 1.19 2.41 2.874 4.937L87 101l-1 2h-2l-1 3c-3-1-3-1-4.187-2.75-.921-2.55-.962-4.56-.813-7.25h4z"/><path fill="#EEE241" d="M200 144h1c1.237 5.764 1.148 11.449 1.125 17.313l.012 3.072-.004 2.916-.004 2.661C202 172 202 172 201 173l-.312 3.188c-.76 4.209-2.066 6.475-4.688 9.812l-2 1 2-6 .766-2.332.797-2.418.753-2.297C199 172 199 172 200 170c.085-1.96.107-3.922.098-5.883l-.01-3.535-.025-3.707-.014-3.73A3195 3195 0 0 0 200 144"/><path fill="#F0EE91" d="m71 119 7 1-2 11-6.64-.781c-2.629-.28-2.629-.28-6.36-.219l-1-9h2v7h10v-6l-3-1z"/><path fill="#FEF9A0" d="M30 73h5l1 2h-2v21l-2 1-.184-3.98-.253-5.207-.12-2.62C31.237 81.041 31 77.055 30 73"/><path fill="#E3E477" d="M32 199c3.487 1.11 6.775 2.263 10 4v2l2.375-.187L47 205l2 3c-6.463.454-9.61-.406-15-4v-3h-2z"/><path fill="#E0DE6F" d="M131 126c1.432 2.864.317 4.763-.48 7.723-.852 3.73-.986 7.464-1.145 11.277l-.117 2.348A915 915 0 0 0 129 153c-2.515-2.515-2.26-4.086-2.273-7.521l.023-2.167-.023-2.107c.02-5.458.235-11.167 4.273-15.205"/><path fill="#F3DF17" d="m171.25 173.75 2.75.25-2.375 1.875c-2.593 2.024-2.593 2.024-4.625 4.125-9.215.846-18.79-.287-28-1v-2l2.231.155c3.339.22 6.678.408 10.019.595l3.512.246 3.379.176 3.11.19c4.614-.608 5.294-4.25 9.999-4.612"/><path fill="#FDF895" d="M126 129h1l-1 20-3 1v-16h2z"/><path fill="#EDE03B" d="M105 31c1 2 1 2 .438 4.813-1.478 3.277-3 4.803-5.84 6.953C97.176 44.636 95.13 46.808 93 49c1.199-3.083 2.477-6.063 4-9h2l.188-1.687c1.146-3.263 3.306-5 5.812-7.313"/><path fill="#F9F170" d="m141 170 1 2c7.742 2.844 15.874 2.178 24 2-3.224 3.224-7.11 2.425-11.5 2.438l-2.741.011c-6.861-.118-12.132-1.303-17.759-5.449 3.625-2.125 3.625-2.125 7-1"/><path fill="#E6E483" d="M118 24c3.762 1.627 5.383 3.21 6.875 6.938 1.134 3.096 1.15 4.923.125 8.062-4.429-5.143-4.429-5.143-5-9h-2z"/><path fill="#F1F097" d="M198 112c3.325 4.987 5.484 10.032 7.25 15.75l1.078 3.422C207 134 207 134 206 136c-4.408-8.262-4.408-8.262-5-13h-2l-1 3z"/><path fill="#E2DB60" d="M52 89h2c2.702 5.396 3.401 9.446 3.188 15.438l-.042 2.216A418 418 0 0 1 57 112h-2l-.148-2.887-.227-3.8c-.07-1.242-.14-2.483-.21-3.762C54.031 98.275 53.258 96.004 52 93z"/><path fill="#F8F9B6" d="M192 82h2v10h2v14c-1.996-3.991-2.195-5.7-2-10h-2z"/><path fill="#DEE45C" d="M200 65v3h-3l-1 4-4 1v-3l-5 1c.5-1.875.5-1.875 2-4 3.61-1.42 7.134-2 11-2"/><path fill="#FDF693" d="m92 43 1 2 2 1a665 665 0 0 1-3.75 5.875l-2.11 3.305C87.138 57.82 86.06 58.91 83 60c1.275-4.57 3.004-7.368 6-11a132 132 0 0 0 3-6"/><path fill="#F6F5A8" d="m104 195 2 1c-6.382 6.479-12.084 10.787-21 13h-2v-2l3.324-1.61 4.364-2.14 2.185-1.055c4.116-2.03 7.647-4.147 11.127-7.195"/><path fill="#F9F6CA" d="M89 148h1q.508 2.342 1 4.688l.563 2.636c.427 2.613.513 5.034.437 7.676l-3 1 1-7h-2l-.687 2.188c-1.561 3.344-3.616 5.328-6.313 7.812l-2-1 2.25-2c4.327-4.327 6.99-9.927 7.75-16"/><path fill="#FEFEF8" d="M70.188 114C72 115 72 115 74 118c3.557 1.219 3.557 1.219 7 2l-3 12h-1c-.286-8.571-.286-8.571 2-12l-3.25.25C72 120 72 120 69.563 118L68 116l-2 4-3-1c4.39-5 4.39-5 7.188-5"/><path fill="#E9E68D" d="m12 145 3 1-.016 2.187q-.029 4.875-.046 9.75l-.026 3.444-.01 3.271-.016 3.031c-.148 2.28-.148 2.28 1.114 3.317.04 1.666.043 3.334 0 5l-.937-1.937c-.898-2-.898-2-2.063-3.063a254 254 0 0 1-.562-8.562l-.131-2.444A1763 1763 0 0 1 12 154h-1c-.125-6.75-.125-6.75 1-9"/><path fill="#EEDD1F" d="M84 70c1.059 3.176.915 4.515.438 7.75-.534 4.586.092 7.841 1.562 12.25.125 2.938.125 2.938 0 5l3 1v5c-5.237-3.491-5.704-10.083-7-16-.653-5.464-.108-9.861 2-15"/><path fill="#E7E689" d="M89 42h2c-.422 5.377-1.424 8.003-5 12a156 156 0 0 0-3 5c0-3 0-3 1-5l-2-1 1.277-1.898 1.66-2.477 1.653-2.46C88.01 44.072 88.01 44.072 89 42"/><path fill="#F8EF75" d="M202 155c2.397 2.397 2.283 3.07 2.414 6.352l.117 2.578.094 2.695.117 2.719q.142 3.327.258 6.656l-2-2-1 2h-2l.48-1.743c.5-2.166.719-4.15.836-6.366l.127-2.286.12-2.355.13-2.402q.158-2.925.307-5.848"/><path fill="#F9F17F" d="M128 117h1c.876 6.543 1.355 11.766-1 18l-2-3-2 2 2-12h2z"/><path fill="#EFE44E" d="m177 83 2 1-3 1-.312 2.438c-.545 2.822-1.215 5.14-2.188 7.812-1.698 4.863-2.19 9.63-2.5 14.75h-1c-.268-9.906-.006-17.24 5-26z"/><path fill="#EDDF3E" d="m193 187 1 3c-1.812 2-1.812 2-4 4h-3l-1 3c-3.238 1.871-6.32 3.292-10 4 1.051-2.866 1.669-3.83 4.438-5.25C183 195 183 195 186 195l1-3h3v-2h2z"/><path fill="#DEDB76" d="M17 128h2c.322 5.173-.784 9.088-2.5 13.875l-.723 2.086A666 666 0 0 1 14 149h-1c-.215-5.231.476-9.438 2-14.437l1.125-3.747z"/><path fill="#E9EB9B" d="M168 118h1c2.15 7.59 2.15 7.59 1 12-.068 2.25-.085 4.5-.062 6.75l.027 3.547L170 143c-2.883-2.883-2.421-5.94-2.562-9.812-.19-4.473-.398-8.815-1.438-13.188h2z"/><path fill="#FCF48D" d="M134 52c3 1 3 1 4.168 2.926l1.02 2.386 1.042 2.364C141 62 141 62 141 66h-2a486 486 0 0 1-2.5-4.75l-1.406-2.672C134 56 134 56 134 52"/><path fill="#FCFCF0" d="m89 40 1 2c-1.078 1.808-2.172 3.608-3.328 5.367-2.459 3.872-4.673 7.878-6.904 11.884C78.339 61.787 77.069 63.931 75 66c.61-4.364 2.21-7.647 4.313-11.5l1.8-3.344C82.881 48.2 84.803 45.646 87 43z"/><path fill="#EEDC26" d="M195 178h3l-6 12h-2v2l-3 1-2 2v-5l3.313-1.5c4.553-2.544 5.304-5.619 6.687-10.5"/><path fill="#FCF99F" d="M15 152h1l.184 3.684.253 4.754.12 2.431c-.152 3.883-.152 3.883 1.443 7.131q.062 3.5 0 7c-2-1-2-1-3.125-3.375-1.723-7.14-1.152-14.442.125-21.625"/><path fill="#FCF296" d="M135 108c1 3 1 3-.312 5.813L133 117c-.7 1.989-1.377 3.986-2 6l-2-1c-.348-4.868.445-7.837 3-12z"/><path fill="#EEDE3A" d="M89 57c1 2 1 2 .25 5.063L88 65l-3 1-.375 2.75C84.079 71.59 83.427 73.526 82 76c-.637-7.002 1.046-11.224 5-17z"/><path fill="#F1E653" d="M98 136h1q.04 3.53.063 7.063l.035 3.972c-.093 3.781-.484 7.244-1.098 10.965h-2l-.812 2.375C94 163 94 163 91 165c1.02-2.665 2.069-5.119 3.5-7.594 1.883-4.275 2.286-8.164 2.688-12.781l.248-2.52c.198-2.034.383-4.07.564-6.105"/><path fill="#E4E27B" d="M88 157h2c-.276 4.554-2.293 7.26-5.234 10.55-2.718 2.232-5.338 2.381-8.766 2.45l3-1v-2l2.25-1.187c3.683-2.428 4.762-4.91 6.75-8.813"/><path fill="#EEDE40" d="M192 120h1l1 8h2c1.998 4.12 2.178 7.452 2 12-5.556-6.112-6.278-12.07-6-20"/><path fill="#ECE990" d="M27.824 194.758c1.761 1.021 3.472 2.128 5.176 3.242l-1 3h2v2c-4.671-1.557-8.087-4.084-12-7 2.106-1.685 3.265-2.305 5.824-1.242"/><path fill="#F8F07E" d="M28 117c0 3 0 3-1.375 5.563-2.067 4.372-2.828 8.692-3.625 13.437h-1l1-10h-2l2-8 2 2z"/><path fill="#FDF59F" d="M58 171h18v2c-3.416 1.04-6.564 1.134-10.125 1.125l-3.195.008C60 174 60 174 58 173z"/><path fill="#E3E15B" d="M22 66h8v2h2v2h-4v2c-2.437-.75-2.437-.75-5-2-.812-2.125-.812-2.125-1-4"/><path fill="#EFE97A" d="M150 116h2l1 4h-4l1 4c-2.312.688-2.312.688-5 1-1.812-1.312-1.812-1.312-3-3v-2l3.438-.875L149 118z"/><path fill="#F9F379" d="m170 101 .402 3.324.536 4.364.263 2.185c.462 3.747.99 7.435 1.799 11.127-2-1-2-1-3-4-.04-2.333-.044-4.667 0-7l-3-1v-8c2-1 2-1 3-1"/><path fill="#F9F398" d="M28 70c5.239.748 8.663 3.109 13 6l-1 3-6-2 1-3-5-1-1 2z"/><path fill="#FEFEF4" d="m204 190 1 2c-4.035 4.811-8.045 9.132-13 13l-2-1c3.321-3.422 6.762-6.545 10.45-9.57 1.797-1.545 1.797-1.545 3.55-4.43"/><path fill="#F4F2BC" d="M17 123c2.087 6.262-.599 13.072-3 19l-2 3c-.804-8.036 2.103-14.634 5-22"/><path fill="#F1DE19" d="M190 120c2.605 3.907 3.205 7.741 4.219 12.285.578 2.835.578 2.835 2.781 4.715-.375 2.125-.375 2.125-1 4l-1-4h-3c-1.298-5.76-2.257-11.087-2-17"/><path fill="#F0E353" d="M123 196c6.401.466 11.268 2.147 17 5v2c-6.491-.423-11.335-2.911-17-6z"/><path fill="#FEF699" d="m203 152 2 1c1.187 3.56 1.097 6.438 1.063 10.188l-.028 3.855L206 170l-2 1z"/><path fill="#F0E753" d="M35 77h3v3h-2l.07 3.945q.029 2.59.055 5.18l.05 2.594c.038 4.847-.28 8.728-2.175 13.281-.934-3.01-1.044-3.867 0-7 .147-1.626.247-3.256.316-4.887l.127-2.842.12-2.959.13-2.994Q34.852 80.66 35 77"/><path fill="#EEE255" d="M23 183a366483260082312.6 366483260082312.6 0 0 0 11 8.25l2 1.75v2c-6.208-1.211-9.484-5.007-13-10z"/><path fill="#F4DE1C" d="M114 181h2l.625 2.313c1.182 2.972 1.182 2.972 4.438 4.187 2.937 1.5 2.937 1.5 3.812 4.188L125 194c-2.5-1.375-2.5-1.375-5-3v-2l-4-1z"/><path fill="#E0E085" d="m140 168 2.508.434c3.78.613 7.57 1.132 11.367 1.629l2.086.275q2.52.332 5.039.662v1q-3.562.08-7.125.125c-.665.017-1.33.034-2.016.05-4.354.043-7.815-.575-11.859-2.175z"/><path fill="#EFDE37" d="M135 59c4.13 3.542 4.394 7.794 5 13 .146 4.007.124 7.993 0 12h-1l-1.437-9.125-.409-2.594c-.698-4.43-1.407-8.858-2.154-13.281"/><path fill="#E4E381" d="M169 161h3c-.503 4.401-2.088 6.712-5 10l-4-1 2.438-2.25c2.332-2.503 3.197-3.468 3.562-6.75"/><path fill="#E6E078" d="M194 107c2.628 1.865 3.864 3.304 4.488 6.492.238 2.504.416 4.995.512 7.508h-2c-2.19-3.285-2.353-4.831-2.625-8.687l-.227-3.012z"/><path fill="#EDDE42" d="M109 26c1.813 0 1.813 0 4 1 2.002 2.708 4 5.547 4 9h-2a125 125 0 0 1-4-6l-5 1c1.875-3.875 1.875-3.875 3-5"/><path fill="#F4F4C0" d="m11 175 1 4h3q.722 1.874 1.438 3.75l.808 2.11c.715 2.03 1.268 4.044 1.754 6.14-1.5-1.375-1.5-1.375-3-3v-2l-3-1c-1.803-3.416-2.219-6.169-2-10"/><path fill="#DFE174" d="M169 128c2.18 1.759 2.937 2.694 3.512 5.48l.175 2.708.2 2.73L173 141l-3 2c-1.036-5.05-1.103-9.874-1-15"/><path fill="#E9DE32" d="M67 120c2.063.438 2.063.438 4 1v5h-6c.875-4.875.875-4.875 2-6"/><path fill="#EADC3B" d="M184 82v14h-1l-1-12-6 3v-2c2.905-2.042 4.401-3 8-3"/><path fill="#DFDE76" d="M12 164h1l.375 3.188c.458 3.657.458 3.657 1.625 6.312 1.251 3.129 1.608 6.166 2 9.5h-2v-4h-2c-.847-5.08-1.09-9.848-1-15"/><path fill="#E3E17B" d="m78 96 3 1v4h2v5c-3-1-3-1-4.187-2.75-.921-2.55-.962-4.56-.813-7.25"/><path fill="#F4EF8D" d="m185 72 2 1-1 8-1-3-4 1v-2l-2-1z"/><path fill="#FBF2B3" d="M187 72h4c-.812 3.438-.812 3.438-2 7l-3 1q-.061-3.5 0-7z"/><path fill="#E9E794" d="M76 207v2l7-1c-2.266 2.266-3.842 2.945-7.043 3.098l-2.144-.036L70 211c3.75-4 3.75-4 6-4"/><path fill="#FCF799" d="M40 200c2.763.523 5.326 1.109 8 2l1 3h-7v-2h-2z"/><path fill="#EFE027" d="M124 117h2a762 762 0 0 1-.875 6.375l-.492 3.586C124 130 124 130 122 132c-.194-5.527.252-9.756 2-15"/><path fill="#E0E269" d="M193 75c.37 6.523.37 6.523-1.5 8.938L190 85c-1-1-1-1-1.25-3.875.25-3.125.25-3.125 1.688-5C192 75 192 75 193 75"/><path fill="#EDEE96" d="m21 64 8 1v1h-7l1.563 2.875L25 72l-1 2c-4.062-5.415-4.062-5.415-3.75-8.375z"/><path fill="#DDE076" d="M132 47c3.312 1.164 5.89 2.112 8 5v4c-3.327-1.109-3.79-1.718-5.687-4.5l-1.325-1.906C132 48 132 48 132 47"/><path fill="#FCF095" d="m126 154 3 4 1.688 2.063C132 162 132 162 132 165l-3-1v-2l-3-1z"/><path fill="#E2E36E" d="m112 13 2 5h-7v-4c2-1 2-1 5-1"/><path fill="#F1E13F" d="M129 167q2.974 1.428 5.938 2.875l3.34 1.617C141 173 141 173 142 175c-6.124-.367-8.787-1.787-13-6z"/><path fill="#F9F49E" d="m19 139-1 9-3 1q.172-2.22.375-4.437c.07-.824.14-1.648.21-2.497L16 140c2-1 2-1 3-1"/><path fill="#F2E141" d="M87 100c1.938.938 1.938.938 4 3 .662 2.986.872 5.949 1 9l-1-3h-2c-1.498-3.371-2-5.204-2-9"/><path fill="#EFEDAC" d="M28 80h1q.118 4.438.188 8.875l.076 2.55.029 2.442.048 2.254L29 98l-3 2v-5h2z"/><path fill="#F4E766" d="M101 35c0 6.128-3.122 9.611-7 14 0-3.694 1.282-5.778 3-9h2l.438-1.937C100 36 100 36 101 35"/><path fill="#F0DF21" d="M109.813 180.25 113 181v1l-8 1-2 5-2-4c3.15-3.15 4.253-4.049 8.813-3.75"/><path fill="#F8EE5F" d="m141 170 2 3c2.552 1.205 2.552 1.205 5 2-2.73 1.065-3.793 1.08-6.578.004l-2.672-1.441-2.703-1.434L134 171c3.625-2.125 3.625-2.125 7-1"/><path fill="#E2DE6F" d="M52 89h2c3.077 6.4 3.077 6.4 2.688 9.438L56 100v-2h-2c-1.498-3.371-2-5.204-2-9"/><path fill="#E5E280" d="m85 205 1 2-10 2v-3c6.75-2.125 6.75-2.125 9-1"/><path fill="#F1DF15" d="m177 194 6 1-6 4-1 3h-4v-2h3z"/><path fill="#E7E380" d="m142 94 1 2h2l-3 9-3-1z"/><path fill="#F9EB6F" d="M93.563 193.938 96 194c-3.173 3.536-5.167 5.586-10 6l2-1a90 90 0 0 0 2-4c1-1 1-1 3.563-1.062"/><path fill="#E1DA62" d="M107 189c1.875.25 1.875.25 4 1 1.25 2.063 1.25 2.063 2 4l-8-1z"/><path fill="#FAF086" d="M18 170h1l.313 3.188c.67 3.714 1.718 5.68 3.687 8.812l-1 2-2-4h-3l-1-4h1z"/><path fill="#E0DF6F" d="M199 123h2c1.604 3.508 2.22 6.144 2 10-2.797-2.068-3.027-3.144-3.687-6.687z"/><path fill="#E5E68D" d="M20 118c.894 3.575 1.026 5.25.563 8.75l-.31 2.422L20 131l-1-3h-2z"/><path fill="#F1EFB3" d="M154 120h5v3h-3v7l-3-1 2-1z"/><path fill="#EDE998" d="M125 33c3.48 2.32 4.294 4.264 6 8h-3l-1 2c-2.094-3.402-2.18-6.053-2-10"/><path fill="#EAEB8E" d="m101 22 1 2h2v2h-2l-1 5-1-3h-2c1.875-4.875 1.875-4.875 3-6"/><path fill="#F8F18F" d="m28 191 4 2v4c-2.962-.613-4.38-1.254-7-3l1-2 2 1z"/><path fill="#EFF0A7" d="M137 162a105 105 0 0 1 5 4v2h-2l-1 2c-1.562-1.187-1.562-1.187-3-3 .313-2.687.313-2.687 1-5"/><path fill="#FDF7B1" d="M171 124h2l1 10h-2c-1.158-3.473-1.069-6.36-1-10"/><path fill="#EBE575" d="M154 121h1v7l-2.812-.062c-3.21-.096-3.21-.096-6.188 1.062l1-4 7 1z"/><path fill="#EEE770" d="m68 116 3 1-1 4-1.875.25c-2.31.563-2.31.563-3.375 2.813L64 126c-.412-3.603-.154-4.784 2-7.812z"/><path fill="#E1DD7E" d="m84 108 3 1c.73 1.848.73 1.848 1.188 4.063l.48 2.222L89 117c-1.937-.562-1.937-.562-4-2-.75-3.625-.75-3.625-1-7"/><path fill="#DDDF73" d="m74 80 1 3h2v9l-2-1c-.414-2.504-.414-2.504-.625-5.562l-.227-3.067z"/><path fill="#FEF596" d="M189 198c-3.323 3.938-3.323 3.938-6.75 4.25L180 202c2.438-3.779 2.438-3.779 5.063-4.812C187 197 187 197 189 198"/><path fill="#F8ED67" d="M108.313 183.188 110 184h-3l-.625 2.313c-1.796 3.51-3.806 4.213-7.375 5.687 1.648-4.044 4.505-9.202 9.313-8.812"/><path fill="#FBF685" d="m141 171 11 1v3a441 441 0 0 1-4.937-.875l-2.778-.492L142 173z"/><path fill="#F7EC77" d="M90 109c2.097 2.36 2.97 3.546 3.188 6.75L93 118l-2-2-2 1c-.93-2.606-1.15-3.642-.062-6.25z"/><path fill="#DEDE6A" d="M190 93c1.5 1.063 1.5 1.063 3 3 .188 3.688.188 3.688 0 7l-1-2h-2z"/><path fill="#EAE160" d="M182 78h3v8l-1-4-5 1c1.313-2.5 1.313-2.5 3-5"/><path fill="#E8E283" d="m30 66 6 3v2l2 1-2 1c-2.625-.937-2.625-.937-5-2l1-3h-2z"/><path fill="#F7ED77" d="M198 136c2.063 2.313 2.063 2.313 4 5l-1 3h-2zm4 0h1v5h-1z"/><path fill="#DFDC7D" d="M170 80h3c-.498 3.688-1.1 5.605-4 8-.125-5.75-.125-5.75 1-8"/><path fill="#F4DB1C" d="M89 61h2c-.25 2.375-.25 2.375-1 5-2 1.188-2 1.188-4 2l-1 2v-4l3-2z"/><path fill="#FBF198" d="M173 124c2.28 3.42 2.22 4.682 2.125 8.688l-.055 3.011L175 138l-3-2v-2h2z"/><path fill="#F7E01B" d="M33 117c.813 1.625.813 1.625 1 4-1.468 2.246-3.159 4.024-5 6-.812-1.625-.812-1.625-1-4 1.468-2.246 3.159-4.024 5-6"/><path fill="#F2E355" d="m132 105 2 1a579 579 0 0 1-1.875 4.938l-1.055 2.777C130 116 130 116 128 117z"/><path fill="#EEECA1" d="m79 103 4 3 1-3 2 6-3 1c-2-1.812-2-1.812-4-4z"/><path fill="#E9E695" d="m168 84 3 3-2 6-1-2h-2a85 85 0 0 1 2-7"/><path fill="#F7EF79" d="M141 62c2 2 2 2 2.125 5.125L143 70h-3l-1-4h2z"/><path fill="#F0E351" d="M85.25 197.75 88 198c-3.203 2.834-5.78 3.52-10 4 2.41-2.967 3.347-3.95 7.25-4.25"/><path fill="#FDF68F" d="M122 198c2.875.313 2.875.313 6 1l2 3c-5.75-.875-5.75-.875-8-2z"/><path fill="#F7F8D4" d="M17 123c1.254 3.76.839 6.154 0 10l-3 2q.464-2.438.938-4.875l.527-2.742C16 125 16 125 17 123"/><path fill="#FAF7D9" d="m145 125 1 4 3-2 3 1-4 4-3-1z"/><path fill="#FEF6A8" d="M48 122h1c.37 5.538.37 5.538-1.5 7.875L46 131v-7h2z"/><path fill="#FCF29E" d="M189 104h3c1.354 2.709 1.065 5.01 1 8h-2z"/><path fill="#E5E46B" d="M189 67h2v2h2l2 4h-3v-3l-5 1z"/><path fill="#EDEAA5" d="m109 10 5 1-1 3h-6z"/><path fill="#F4DF1D" d="M36 193c2.763.523 5.326 1.109 8 2v2c-5.75-.875-5.75-.875-8-2z"/><path fill="#FAF78C" d="m198 186 1 4-4 3c-.187-2.375-.187-2.375 0-5z"/><path fill="#F7E556" d="M199 178c0 3.608-.99 5.063-3 8l-2 1c1.09-3.775 1.908-6.47 5-9"/><path fill="#F9F17B" d="m169 168 1 2 4-2-1 3-5 1v2l-2-1z"/><path fill="#E3E384" d="m135 111 1 3h2l-2 8h-1a491 491 0 0 1-.562-4.375l-.317-2.46C134 113 134 113 135 111"/><path fill="#FEEFA8" d="M185 86h3v6h-3z"/><path fill="#EAE26F" d="M35 77h3v3h-2v9h-1z"/><path fill="#E9E04D" d="m38 79 6 5c-2.84 0-5.237-.403-8-1v-3z"/><path fill="#E0DD85" d="m24 71 4 1 1 6h-2z"/><path fill="#F7E755" d="M128 50c3.265 1.804 4.89 2.834 7 6l-1 3a483 483 0 0 1-3-3.375l-1.687-1.898C128 52 128 52 128 50"/><path fill="#FBF8B7" d="M208 179c1 3 1 3 .223 5.043l-1.16 2.144-1.153 2.168L205 190c-1.397-4.19.136-6.128 2-10z"/><path fill="#F0F19F" d="m162 170 3 2c-1 1-1 1-3.723 1.098l-3.34-.036-3.347-.027L152 173v-1c.957-.09.957-.09 1.934-.184l2.504-.254c.823-.08 1.647-.162 2.496-.246 2.053-.105 2.053-.105 3.066-1.316"/><path fill="#FEFBAF" d="M30 73h5l1 2h-2v2l-4-1z"/></svg>